<svg xmlns="http://www.w3.org/2000/svg" xmlns:xlink="http://www.w3.org/1999/xlink" width="1080" zoomAndPan="magnify" viewBox="0 0 810 809.999993" height="1080" preserveAspectRatio="xMidYMid meet" version="1.0"><defs><g/><clipPath id="f5694e1fd6"><path d="M 184 535 L 626.207031 535 L 626.207031 790.261719 L 184 790.261719 Z M 184 535 " clip-rule="nonzero"/></clipPath><clipPath id="7bca8b0b1f"><path d="M 467 334.261719 L 606 334.261719 L 606 529 L 467 529 Z M 467 334.261719 " clip-rule="nonzero"/></clipPath></defs><rect x="-81" width="972" fill="#ffffff" y="-80.999999" height="971.999992" fill-opacity="1"/><rect x="-81" width="972" fill="#323131" y="-80.999999" height="971.999992" fill-opacity="1"/><g clip-path="url(#f5694e1fd6)"><path fill="#807c7c" d="M 625.871094 643.386719 L 591.359375 539.847656 C 591.128906 539.160156 590.800781 538.523438 590.371094 537.941406 C 589.945312 537.359375 589.433594 536.855469 588.847656 536.429688 C 588.261719 536.007812 587.621094 535.683594 586.933594 535.460938 C 586.242188 535.238281 585.539062 535.128906 584.8125 535.128906 L 225.871094 535.128906 C 225.148438 535.128906 224.441406 535.238281 223.75 535.460938 C 223.0625 535.683594 222.421875 536.007812 221.835938 536.429688 C 221.25 536.855469 220.738281 537.359375 220.3125 537.941406 C 219.882812 538.523438 219.550781 539.160156 219.324219 539.847656 L 184.808594 643.386719 C 184.722656 643.648438 184.652344 643.910156 184.597656 644.175781 C 184.542969 644.441406 184.503906 644.710938 184.480469 644.984375 C 184.457031 645.253906 184.449219 645.527344 184.457031 645.800781 C 184.46875 646.070312 184.492188 646.34375 184.535156 646.613281 C 184.574219 646.882812 184.632812 647.148438 184.703125 647.410156 C 184.777344 647.671875 184.863281 647.929688 184.96875 648.183594 C 185.070312 648.433594 185.1875 648.679688 185.320312 648.917969 C 185.453125 649.15625 185.597656 649.386719 185.757812 649.609375 C 185.917969 649.828125 186.089844 650.039062 186.273438 650.242188 C 186.457031 650.441406 186.652344 650.628906 186.859375 650.808594 C 187.066406 650.984375 187.285156 651.148438 187.507812 651.300781 C 187.734375 651.453125 187.96875 651.59375 188.210938 651.714844 C 188.457031 651.839844 188.703125 651.949219 188.960938 652.042969 C 189.214844 652.140625 189.476562 652.21875 189.742188 652.28125 C 190.003906 652.347656 190.273438 652.394531 190.542969 652.425781 C 190.8125 652.460938 191.085938 652.476562 191.359375 652.476562 L 225.871094 652.476562 L 225.871094 783.625 C 225.871094 784.082031 225.914062 784.527344 226.003906 784.972656 C 226.09375 785.417969 226.222656 785.851562 226.398438 786.269531 C 226.570312 786.6875 226.78125 787.085938 227.035156 787.460938 C 227.285156 787.839844 227.574219 788.1875 227.894531 788.507812 C 228.214844 788.828125 228.5625 789.113281 228.9375 789.367188 C 229.316406 789.617188 229.714844 789.832031 230.132812 790.003906 C 230.550781 790.179688 230.984375 790.308594 231.429688 790.398438 C 231.871094 790.484375 232.320312 790.53125 232.773438 790.53125 L 577.910156 790.53125 C 578.363281 790.53125 578.8125 790.484375 579.257812 790.398438 C 579.703125 790.308594 580.132812 790.179688 580.550781 790.003906 C 580.972656 789.832031 581.371094 789.621094 581.746094 789.367188 C 582.125 789.117188 582.472656 788.828125 582.792969 788.507812 C 583.113281 788.1875 583.398438 787.839844 583.652344 787.460938 C 583.902344 787.085938 584.117188 786.6875 584.289062 786.269531 C 584.460938 785.851562 584.59375 785.417969 584.679688 784.972656 C 584.769531 784.527344 584.8125 784.082031 584.8125 783.625 L 584.8125 652.476562 L 619.328125 652.476562 C 619.597656 652.476562 619.871094 652.460938 620.140625 652.425781 C 620.414062 652.394531 620.679688 652.347656 620.945312 652.285156 C 621.210938 652.21875 621.46875 652.140625 621.726562 652.046875 C 621.980469 651.953125 622.230469 651.84375 622.472656 651.71875 C 622.714844 651.59375 622.949219 651.457031 623.175781 651.304688 C 623.402344 651.152344 623.621094 650.988281 623.828125 650.808594 C 624.035156 650.632812 624.230469 650.445312 624.414062 650.242188 C 624.597656 650.042969 624.769531 649.832031 624.929688 649.609375 C 625.089844 649.386719 625.234375 649.160156 625.367188 648.921875 C 625.5 648.683594 625.617188 648.4375 625.71875 648.183594 C 625.820312 647.933594 625.910156 647.675781 625.980469 647.410156 C 626.054688 647.148438 626.109375 646.882812 626.152344 646.613281 C 626.191406 646.34375 626.21875 646.074219 626.226562 645.800781 C 626.234375 645.527344 626.226562 645.253906 626.203125 644.984375 C 626.179688 644.710938 626.140625 644.441406 626.085938 644.175781 C 626.03125 643.910156 625.957031 643.648438 625.871094 643.386719 Z M 230.847656 548.933594 L 444.082031 548.933594 L 414.171875 638.667969 L 200.933594 638.667969 Z M 239.675781 652.476562 L 419.148438 652.476562 C 419.871094 652.476562 420.578125 652.363281 421.269531 652.140625 C 421.957031 651.917969 422.59375 651.597656 423.183594 651.171875 C 423.769531 650.75 424.277344 650.246094 424.707031 649.664062 C 425.136719 649.078125 425.464844 648.445312 425.691406 647.757812 L 446.757812 584.558594 L 446.757812 776.722656 L 239.675781 776.722656 Z M 571.007812 776.722656 L 460.5625 776.722656 L 460.5625 584.558594 L 481.628906 647.757812 C 481.859375 648.445312 482.1875 649.078125 482.617188 649.664062 C 483.042969 650.246094 483.550781 650.75 484.140625 651.171875 C 484.726562 651.597656 485.367188 651.917969 486.054688 652.140625 C 486.742188 652.363281 487.449219 652.476562 488.175781 652.476562 L 571.007812 652.476562 Z M 493.148438 638.667969 L 463.242188 548.933594 L 579.839844 548.933594 L 609.746094 638.667969 Z M 493.148438 638.667969 " fill-opacity="1" fill-rule="nonzero"/></g><path fill="#807c7c" d="M 239.675781 528.226562 C 240.128906 528.226562 240.578125 528.183594 241.023438 528.09375 C 241.46875 528.003906 241.898438 527.875 242.320312 527.703125 C 242.738281 527.527344 243.136719 527.316406 243.511719 527.0625 C 243.890625 526.8125 244.238281 526.527344 244.558594 526.207031 C 244.878906 525.882812 245.164062 525.535156 245.417969 525.160156 C 245.667969 524.78125 245.882812 524.382812 246.054688 523.964844 C 246.226562 523.546875 246.359375 523.113281 246.449219 522.671875 C 246.535156 522.226562 246.582031 521.777344 246.578125 521.324219 L 246.578125 507.519531 L 269.785156 507.519531 C 270.5625 507.519531 271.316406 507.390625 272.050781 507.136719 C 272.785156 506.878906 273.457031 506.511719 274.066406 506.03125 C 274.675781 505.546875 275.191406 504.980469 275.609375 504.324219 C 276.027344 503.667969 276.324219 502.960938 276.503906 502.207031 C 278.550781 493.566406 281.910156 485.46875 286.582031 477.917969 C 286.988281 477.257812 287.277344 476.546875 287.445312 475.789062 C 287.613281 475.03125 287.652344 474.265625 287.5625 473.492188 C 287.472656 472.71875 287.257812 471.984375 286.917969 471.285156 C 286.582031 470.585938 286.136719 469.960938 285.585938 469.410156 L 269.164062 452.992188 L 288.691406 433.460938 L 305.113281 449.882812 C 305.660156 450.433594 306.285156 450.878906 306.984375 451.21875 C 307.683594 451.554688 308.421875 451.769531 309.191406 451.859375 C 309.964844 451.949219 310.730469 451.910156 311.488281 451.742188 C 312.246094 451.574219 312.957031 451.285156 313.617188 450.875 C 321.171875 446.207031 329.269531 442.847656 337.90625 440.796875 C 338.664062 440.617188 339.367188 440.320312 340.023438 439.902344 C 340.679688 439.484375 341.25 438.972656 341.730469 438.363281 C 342.210938 437.753906 342.582031 437.082031 342.835938 436.347656 C 343.089844 435.613281 343.21875 434.859375 343.21875 434.082031 L 343.21875 410.878906 L 370.828125 410.878906 L 370.828125 434.082031 C 370.828125 434.859375 370.957031 435.613281 371.210938 436.347656 C 371.464844 437.082031 371.835938 437.753906 372.316406 438.363281 C 372.796875 438.972656 373.367188 439.488281 374.023438 439.902344 C 374.679688 440.320312 375.382812 440.617188 376.140625 440.796875 C 384.777344 442.851562 392.875 446.210938 400.429688 450.875 C 401.089844 451.285156 401.796875 451.574219 402.558594 451.746094 C 403.316406 451.914062 404.082031 451.957031 404.855469 451.867188 C 405.628906 451.777344 406.363281 451.5625 407.0625 451.222656 C 407.761719 450.882812 408.386719 450.433594 408.933594 449.882812 L 425.355469 433.460938 L 444.886719 452.992188 L 428.464844 469.410156 C 427.914062 469.960938 427.46875 470.585938 427.128906 471.285156 C 426.792969 471.984375 426.578125 472.71875 426.488281 473.492188 C 426.398438 474.265625 426.4375 475.03125 426.605469 475.789062 C 426.773438 476.546875 427.0625 477.257812 427.472656 477.917969 C 432.140625 485.472656 435.5 493.570312 437.550781 502.207031 C 437.730469 502.960938 438.027344 503.667969 438.445312 504.324219 C 438.859375 504.980469 439.375 505.546875 439.984375 506.03125 C 440.59375 506.511719 441.265625 506.882812 442 507.136719 C 442.730469 507.390625 443.488281 507.519531 444.265625 507.519531 L 467.46875 507.519531 L 467.46875 521.324219 C 467.46875 521.777344 467.511719 522.226562 467.597656 522.671875 C 467.6875 523.113281 467.820312 523.546875 467.992188 523.964844 C 468.164062 524.382812 468.378906 524.78125 468.628906 525.160156 C 468.882812 525.535156 469.167969 525.882812 469.488281 526.203125 C 469.808594 526.523438 470.15625 526.8125 470.535156 527.0625 C 470.910156 527.316406 471.308594 527.527344 471.726562 527.699219 C 472.148438 527.875 472.578125 528.003906 473.023438 528.09375 C 473.46875 528.183594 473.917969 528.226562 474.371094 528.226562 C 474.824219 528.226562 475.273438 528.183594 475.714844 528.09375 C 476.160156 528.003906 476.59375 527.875 477.011719 527.699219 C 477.429688 527.527344 477.828125 527.316406 478.203125 527.0625 C 478.582031 526.8125 478.929688 526.523438 479.25 526.203125 C 479.570312 525.882812 479.855469 525.535156 480.109375 525.160156 C 480.359375 524.78125 480.574219 524.382812 480.746094 523.964844 C 480.921875 523.546875 481.050781 523.113281 481.140625 522.671875 C 481.226562 522.226562 481.273438 521.777344 481.273438 521.324219 L 481.273438 500.617188 C 481.273438 500.164062 481.230469 499.714844 481.140625 499.269531 C 481.050781 498.824219 480.921875 498.390625 480.746094 497.972656 C 480.574219 497.554688 480.363281 497.15625 480.109375 496.78125 C 479.859375 496.402344 479.574219 496.054688 479.25 495.734375 C 478.929688 495.414062 478.582031 495.125 478.207031 494.875 C 477.828125 494.621094 477.429688 494.410156 477.011719 494.238281 C 476.59375 494.0625 476.160156 493.933594 475.714844 493.84375 C 475.273438 493.757812 474.824219 493.710938 474.371094 493.710938 L 449.5625 493.710938 C 447.664062 487.355469 445.132812 481.257812 441.972656 475.425781 L 459.527344 457.871094 C 459.847656 457.550781 460.132812 457.203125 460.386719 456.824219 C 460.636719 456.449219 460.847656 456.050781 461.023438 455.632812 C 461.195312 455.214844 461.328125 454.78125 461.414062 454.335938 C 461.503906 453.894531 461.546875 453.445312 461.546875 452.992188 C 461.546875 452.539062 461.503906 452.089844 461.414062 451.644531 C 461.328125 451.199219 461.195312 450.769531 461.023438 450.347656 C 460.847656 449.929688 460.636719 449.53125 460.386719 449.15625 C 460.132812 448.777344 459.847656 448.429688 459.527344 448.109375 L 430.238281 418.820312 C 429.917969 418.5 429.566406 418.214844 429.191406 417.960938 C 428.8125 417.710938 428.417969 417.496094 427.996094 417.324219 C 427.578125 417.152344 427.148438 417.019531 426.703125 416.929688 C 426.257812 416.84375 425.808594 416.796875 425.355469 416.796875 C 424.902344 416.796875 424.453125 416.84375 424.011719 416.929688 C 423.566406 417.019531 423.132812 417.152344 422.714844 417.324219 C 422.296875 417.496094 421.898438 417.710938 421.523438 417.960938 C 421.144531 418.214844 420.796875 418.5 420.476562 418.820312 L 402.921875 436.375 C 397.089844 433.214844 390.992188 430.683594 384.632812 428.785156 L 384.632812 403.976562 C 384.632812 403.523438 384.589844 403.074219 384.503906 402.628906 C 384.414062 402.1875 384.28125 401.753906 384.109375 401.335938 C 383.9375 400.917969 383.722656 400.519531 383.472656 400.140625 C 383.21875 399.765625 382.933594 399.417969 382.613281 399.097656 C 382.292969 398.777344 381.945312 398.488281 381.566406 398.238281 C 381.191406 397.984375 380.792969 397.773438 380.375 397.601562 C 379.953125 397.425781 379.523438 397.296875 379.078125 397.207031 C 378.632812 397.117188 378.183594 397.074219 377.730469 397.074219 L 336.316406 397.074219 C 335.863281 397.074219 335.414062 397.117188 334.96875 397.207031 C 334.523438 397.296875 334.09375 397.425781 333.671875 397.601562 C 333.253906 397.773438 332.855469 397.984375 332.480469 398.238281 C 332.101562 398.488281 331.753906 398.777344 331.433594 399.097656 C 331.113281 399.417969 330.828125 399.765625 330.574219 400.140625 C 330.324219 400.519531 330.109375 400.917969 329.9375 401.335938 C 329.765625 401.753906 329.632812 402.1875 329.546875 402.628906 C 329.457031 403.074219 329.414062 403.523438 329.414062 403.976562 L 329.414062 428.785156 C 323.054688 430.683594 316.957031 433.214844 311.125 436.375 L 293.570312 418.820312 C 293.242188 418.511719 292.890625 418.238281 292.511719 417.996094 C 292.132812 417.753906 291.734375 417.546875 291.316406 417.382812 C 290.898438 417.214844 290.46875 417.089844 290.027344 417.007812 C 289.585938 416.921875 289.140625 416.878906 288.691406 416.878906 C 288.242188 416.878906 287.796875 416.921875 287.351562 417.007812 C 286.910156 417.089844 286.480469 417.214844 286.0625 417.382812 C 285.644531 417.546875 285.246094 417.753906 284.867188 417.996094 C 284.488281 418.238281 284.136719 418.511719 283.808594 418.820312 L 254.523438 448.109375 C 254.203125 448.429688 253.917969 448.777344 253.664062 449.15625 C 253.414062 449.53125 253.199219 449.929688 253.027344 450.347656 C 252.855469 450.769531 252.722656 451.199219 252.632812 451.644531 C 252.546875 452.089844 252.5 452.539062 252.5 452.992188 C 252.5 453.445312 252.546875 453.894531 252.632812 454.335938 C 252.722656 454.78125 252.855469 455.214844 253.027344 455.632812 C 253.199219 456.050781 253.414062 456.449219 253.664062 456.824219 C 253.917969 457.203125 254.203125 457.550781 254.523438 457.871094 L 272.078125 475.425781 C 268.914062 481.257812 266.382812 487.355469 264.488281 493.710938 L 239.675781 493.710938 C 239.222656 493.710938 238.773438 493.757812 238.332031 493.84375 C 237.886719 493.933594 237.453125 494.0625 237.035156 494.238281 C 236.617188 494.410156 236.21875 494.625 235.84375 494.875 C 235.464844 495.128906 235.117188 495.414062 234.796875 495.734375 C 234.476562 496.054688 234.1875 496.402344 233.9375 496.78125 C 233.683594 497.15625 233.472656 497.554688 233.300781 497.972656 C 233.125 498.390625 232.996094 498.824219 232.90625 499.269531 C 232.820312 499.714844 232.773438 500.164062 232.773438 500.617188 L 232.773438 521.324219 C 232.773438 521.777344 232.820312 522.226562 232.90625 522.671875 C 232.996094 523.113281 233.125 523.546875 233.300781 523.964844 C 233.472656 524.382812 233.683594 524.78125 233.9375 525.160156 C 234.1875 525.535156 234.476562 525.882812 234.796875 526.207031 C 235.117188 526.527344 235.464844 526.8125 235.84375 527.0625 C 236.21875 527.316406 236.617188 527.527344 237.035156 527.703125 C 237.453125 527.875 237.886719 528.003906 238.332031 528.09375 C 238.773438 528.183594 239.222656 528.226562 239.675781 528.226562 Z M 239.675781 528.226562 " fill-opacity="1" fill-rule="nonzero"/><path fill="#807c7c" d="M 315.605469 521.324219 C 315.605469 521.777344 315.652344 522.226562 315.738281 522.671875 C 315.828125 523.113281 315.960938 523.546875 316.132812 523.964844 C 316.304688 524.382812 316.519531 524.78125 316.769531 525.160156 C 317.023438 525.535156 317.308594 525.882812 317.628906 526.203125 C 317.949219 526.523438 318.296875 526.8125 318.675781 527.0625 C 319.050781 527.316406 319.449219 527.527344 319.867188 527.699219 C 320.285156 527.875 320.71875 528.003906 321.164062 528.09375 C 321.609375 528.183594 322.054688 528.226562 322.511719 528.226562 C 322.964844 528.226562 323.410156 528.183594 323.855469 528.09375 C 324.300781 528.003906 324.734375 527.875 325.152344 527.699219 C 325.570312 527.527344 325.96875 527.316406 326.34375 527.0625 C 326.722656 526.8125 327.070312 526.523438 327.390625 526.203125 C 327.710938 525.882812 327.996094 525.535156 328.25 525.160156 C 328.5 524.78125 328.714844 524.382812 328.886719 523.964844 C 329.0625 523.546875 329.191406 523.113281 329.28125 522.671875 C 329.367188 522.226562 329.414062 521.777344 329.414062 521.324219 C 329.414062 520.417969 329.457031 519.515625 329.546875 518.617188 C 329.632812 517.71875 329.765625 516.824219 329.941406 515.9375 C 330.121094 515.050781 330.339844 514.175781 330.601562 513.308594 C 330.863281 512.441406 331.167969 511.59375 331.515625 510.757812 C 331.859375 509.921875 332.246094 509.105469 332.671875 508.308594 C 333.097656 507.511719 333.5625 506.734375 334.066406 505.984375 C 334.566406 505.230469 335.105469 504.507812 335.679688 503.808594 C 336.253906 503.109375 336.859375 502.4375 337.5 501.800781 C 338.140625 501.160156 338.808594 500.554688 339.507812 499.980469 C 340.207031 499.40625 340.933594 498.867188 341.683594 498.367188 C 342.433594 497.863281 343.210938 497.398438 344.007812 496.972656 C 344.804688 496.546875 345.621094 496.160156 346.457031 495.816406 C 347.292969 495.46875 348.144531 495.164062 349.007812 494.902344 C 349.875 494.640625 350.75 494.417969 351.636719 494.242188 C 352.523438 494.066406 353.417969 493.933594 354.316406 493.84375 C 355.21875 493.757812 356.121094 493.710938 357.023438 493.710938 C 357.929688 493.710938 358.828125 493.757812 359.730469 493.84375 C 360.628906 493.933594 361.523438 494.066406 362.410156 494.242188 C 363.296875 494.417969 364.171875 494.640625 365.039062 494.902344 C 365.902344 495.164062 366.753906 495.46875 367.589844 495.816406 C 368.425781 496.160156 369.242188 496.546875 370.039062 496.972656 C 370.835938 497.398438 371.613281 497.863281 372.363281 498.367188 C 373.113281 498.867188 373.839844 499.40625 374.539062 499.980469 C 375.238281 500.554688 375.90625 501.160156 376.546875 501.800781 C 377.1875 502.4375 377.792969 503.109375 378.367188 503.808594 C 378.941406 504.507812 379.480469 505.230469 379.980469 505.984375 C 380.484375 506.734375 380.949219 507.511719 381.375 508.308594 C 381.800781 509.105469 382.1875 509.921875 382.53125 510.757812 C 382.878906 511.59375 383.183594 512.441406 383.445312 513.308594 C 383.707031 514.175781 383.925781 515.050781 384.105469 515.9375 C 384.28125 516.824219 384.414062 517.71875 384.5 518.617188 C 384.589844 519.515625 384.632812 520.417969 384.632812 521.324219 C 384.632812 521.777344 384.679688 522.226562 384.765625 522.671875 C 384.855469 523.113281 384.984375 523.546875 385.160156 523.964844 C 385.332031 524.382812 385.546875 524.78125 385.796875 525.160156 C 386.050781 525.535156 386.335938 525.882812 386.65625 526.203125 C 386.976562 526.523438 387.324219 526.8125 387.703125 527.0625 C 388.078125 527.316406 388.476562 527.527344 388.894531 527.699219 C 389.3125 527.875 389.746094 528.003906 390.191406 528.09375 C 390.636719 528.183594 391.082031 528.226562 391.535156 528.226562 C 391.992188 528.226562 392.4375 528.183594 392.882812 528.09375 C 393.328125 528.003906 393.761719 527.875 394.179688 527.699219 C 394.597656 527.527344 394.996094 527.316406 395.371094 527.0625 C 395.75 526.8125 396.097656 526.523438 396.417969 526.203125 C 396.738281 525.882812 397.023438 525.535156 397.277344 525.160156 C 397.527344 524.78125 397.742188 524.382812 397.914062 523.964844 C 398.085938 523.546875 398.21875 523.113281 398.308594 522.671875 C 398.394531 522.226562 398.441406 521.777344 398.441406 521.324219 C 398.441406 519.96875 398.375 518.613281 398.242188 517.265625 C 398.105469 515.914062 397.910156 514.574219 397.644531 513.242188 C 397.378906 511.914062 397.050781 510.597656 396.65625 509.300781 C 396.261719 508.003906 395.804688 506.726562 395.285156 505.472656 C 394.769531 504.222656 394.1875 502.996094 393.550781 501.800781 C 392.910156 500.605469 392.214844 499.441406 391.460938 498.3125 C 390.707031 497.1875 389.898438 496.097656 389.039062 495.050781 C 388.179688 494 387.269531 492.996094 386.308594 492.039062 C 385.351562 491.078125 384.347656 490.167969 383.296875 489.308594 C 382.25 488.449219 381.160156 487.640625 380.03125 486.886719 C 378.90625 486.132812 377.742188 485.4375 376.546875 484.796875 C 375.351562 484.160156 374.125 483.578125 372.871094 483.058594 C 371.621094 482.539062 370.34375 482.085938 369.046875 481.691406 C 367.746094 481.296875 366.433594 480.96875 365.101562 480.703125 C 363.773438 480.4375 362.433594 480.238281 361.082031 480.105469 C 359.734375 479.972656 358.378906 479.90625 357.023438 479.90625 C 355.667969 479.90625 354.3125 479.972656 352.964844 480.105469 C 351.613281 480.238281 350.273438 480.4375 348.945312 480.703125 C 347.613281 480.96875 346.300781 481.296875 345 481.691406 C 343.703125 482.085938 342.425781 482.539062 341.175781 483.058594 C 339.921875 483.578125 338.695312 484.160156 337.5 484.796875 C 336.304688 485.4375 335.140625 486.132812 334.015625 486.886719 C 332.886719 487.640625 331.796875 488.449219 330.75 489.308594 C 329.699219 490.167969 328.695312 491.078125 327.738281 492.039062 C 326.777344 492.996094 325.867188 494 325.007812 495.050781 C 324.148438 496.097656 323.339844 497.1875 322.585938 498.3125 C 321.832031 499.441406 321.136719 500.605469 320.496094 501.800781 C 319.859375 502.996094 319.277344 504.222656 318.757812 505.472656 C 318.242188 506.726562 317.785156 508.003906 317.390625 509.300781 C 316.996094 510.597656 316.667969 511.914062 316.402344 513.242188 C 316.136719 514.574219 315.941406 515.914062 315.804688 517.265625 C 315.671875 518.613281 315.605469 519.96875 315.605469 521.324219 Z M 315.605469 521.324219 " fill-opacity="1" fill-rule="nonzero"/><g clip-path="url(#7bca8b0b1f)"><path fill="#807c7c" d="M 508.882812 467.199219 L 508.882812 521.324219 C 508.882812 521.777344 508.925781 522.226562 509.015625 522.671875 C 509.105469 523.113281 509.234375 523.546875 509.410156 523.964844 C 509.582031 524.382812 509.792969 524.78125 510.046875 525.160156 C 510.296875 525.535156 510.585938 525.882812 510.90625 526.203125 C 511.226562 526.523438 511.574219 526.8125 511.949219 527.0625 C 512.328125 527.316406 512.726562 527.527344 513.144531 527.699219 C 513.5625 527.875 513.996094 528.003906 514.4375 528.09375 C 514.882812 528.183594 515.332031 528.226562 515.785156 528.226562 C 516.238281 528.226562 516.6875 528.183594 517.132812 528.09375 C 517.578125 528.003906 518.007812 527.875 518.425781 527.699219 C 518.847656 527.527344 519.242188 527.316406 519.621094 527.0625 C 519.996094 526.8125 520.347656 526.523438 520.667969 526.203125 C 520.988281 525.882812 521.273438 525.535156 521.523438 525.160156 C 521.777344 524.78125 521.988281 524.382812 522.164062 523.964844 C 522.335938 523.546875 522.46875 523.113281 522.554688 522.671875 C 522.644531 522.226562 522.6875 521.777344 522.6875 521.324219 L 522.6875 462.515625 C 522.6875 461.804688 522.582031 461.105469 522.363281 460.429688 C 522.148438 459.75 521.835938 459.117188 521.425781 458.535156 C 521.015625 457.953125 520.523438 457.445312 519.957031 457.015625 C 519.390625 456.585938 518.769531 456.25 518.097656 456.011719 C 516.765625 455.535156 515.449219 455.011719 514.15625 454.4375 C 512.863281 453.863281 511.59375 453.238281 510.347656 452.566406 C 509.101562 451.894531 507.882812 451.175781 506.691406 450.410156 C 505.5 449.644531 504.339844 448.832031 503.210938 447.976562 C 502.082031 447.125 500.988281 446.226562 499.929688 445.289062 C 498.871094 444.347656 497.847656 443.371094 496.863281 442.355469 C 495.878906 441.335938 494.933594 440.285156 494.027344 439.195312 C 493.125 438.105469 492.261719 436.980469 491.445312 435.824219 C 490.628906 434.671875 489.855469 433.484375 489.128906 432.269531 C 488.402344 431.054688 487.722656 429.8125 487.089844 428.546875 C 486.457031 427.28125 485.875 425.988281 485.34375 424.679688 C 484.808594 423.367188 484.328125 422.035156 483.898438 420.6875 C 483.464844 419.339844 483.089844 417.976562 482.761719 416.597656 C 482.4375 415.21875 482.164062 413.832031 481.941406 412.433594 C 481.722656 411.035156 481.558594 409.628906 481.445312 408.21875 C 481.332031 406.808594 481.277344 405.394531 481.273438 403.976562 C 481.292969 401.453125 481.464844 398.941406 481.792969 396.4375 C 482.121094 393.9375 482.597656 391.464844 483.226562 389.019531 C 483.851562 386.574219 484.628906 384.179688 485.546875 381.828125 C 486.46875 379.480469 487.527344 377.195312 488.726562 374.972656 C 489.925781 372.753906 491.253906 370.613281 492.710938 368.554688 C 494.171875 366.496094 495.75 364.535156 497.449219 362.667969 C 499.148438 360.800781 500.953125 359.046875 502.867188 357.398438 C 504.78125 355.753906 506.785156 354.230469 508.882812 352.828125 L 508.882812 403.976562 C 508.882812 404.894531 509.058594 405.773438 509.410156 406.617188 C 509.757812 407.464844 510.257812 408.210938 510.90625 408.859375 L 531.613281 429.566406 C 531.933594 429.886719 532.28125 430.171875 532.660156 430.425781 C 533.035156 430.675781 533.433594 430.890625 533.851562 431.0625 C 534.273438 431.234375 534.703125 431.367188 535.148438 431.457031 C 535.59375 431.542969 536.042969 431.589844 536.496094 431.589844 C 536.949219 431.589844 537.394531 431.542969 537.839844 431.457031 C 538.285156 431.367188 538.71875 431.234375 539.136719 431.0625 C 539.554688 430.890625 539.953125 430.675781 540.328125 430.425781 C 540.707031 430.171875 541.054688 429.886719 541.375 429.566406 L 562.082031 408.859375 C 562.730469 408.210938 563.230469 407.464844 563.578125 406.617188 C 563.929688 405.773438 564.105469 404.894531 564.105469 403.976562 L 564.105469 352.828125 C 566.203125 354.230469 568.207031 355.753906 570.121094 357.398438 C 572.035156 359.046875 573.839844 360.800781 575.539062 362.667969 C 577.238281 364.535156 578.816406 366.496094 580.273438 368.554688 C 581.734375 370.613281 583.0625 372.753906 584.261719 374.972656 C 585.460938 377.195312 586.519531 379.480469 587.441406 381.828125 C 588.359375 384.179688 589.136719 386.574219 589.761719 389.019531 C 590.390625 391.464844 590.867188 393.9375 591.195312 396.4375 C 591.523438 398.941406 591.695312 401.453125 591.714844 403.976562 C 591.710938 405.394531 591.65625 406.808594 591.542969 408.21875 C 591.429688 409.628906 591.265625 411.035156 591.046875 412.433594 C 590.824219 413.832031 590.550781 415.21875 590.226562 416.597656 C 589.898438 417.976562 589.519531 419.339844 589.089844 420.6875 C 588.660156 422.035156 588.179688 423.367188 587.644531 424.679688 C 587.113281 425.988281 586.53125 427.28125 585.898438 428.546875 C 585.265625 429.8125 584.585938 431.054688 583.859375 432.269531 C 583.132812 433.484375 582.359375 434.671875 581.542969 435.824219 C 580.722656 436.980469 579.863281 438.105469 578.960938 439.195312 C 578.054688 440.285156 577.109375 441.335938 576.125 442.355469 C 575.140625 443.371094 574.117188 444.347656 573.058594 445.289062 C 572 446.226562 570.90625 447.125 569.777344 447.976562 C 568.648438 448.832031 567.488281 449.644531 566.296875 450.410156 C 565.105469 451.175781 563.886719 451.894531 562.640625 452.566406 C 561.394531 453.238281 560.125 453.863281 558.832031 454.4375 C 557.539062 455.011719 556.222656 455.535156 554.890625 456.011719 C 554.21875 456.25 553.597656 456.585938 553.03125 457.015625 C 552.464844 457.445312 551.972656 457.953125 551.5625 458.535156 C 551.152344 459.117188 550.839844 459.75 550.625 460.429688 C 550.40625 461.105469 550.300781 461.804688 550.300781 462.515625 L 550.300781 521.324219 C 550.300781 521.777344 550.34375 522.226562 550.433594 522.671875 C 550.519531 523.113281 550.652344 523.546875 550.824219 523.964844 C 551 524.382812 551.210938 524.78125 551.460938 525.160156 C 551.714844 525.535156 552 525.882812 552.320312 526.203125 C 552.640625 526.523438 552.992188 526.8125 553.367188 527.0625 C 553.742188 527.316406 554.140625 527.527344 554.5625 527.699219 C 554.980469 527.875 555.410156 528.003906 555.855469 528.09375 C 556.300781 528.183594 556.75 528.226562 557.203125 528.226562 C 557.65625 528.226562 558.105469 528.183594 558.546875 528.09375 C 558.992188 528.003906 559.425781 527.875 559.84375 527.699219 C 560.261719 527.527344 560.660156 527.316406 561.039062 527.0625 C 561.414062 526.8125 561.761719 526.523438 562.082031 526.203125 C 562.402344 525.882812 562.691406 525.535156 562.941406 525.160156 C 563.195312 524.78125 563.40625 524.382812 563.578125 523.964844 C 563.753906 523.546875 563.882812 523.113281 563.972656 522.671875 C 564.0625 522.226562 564.105469 521.777344 564.105469 521.324219 L 564.105469 467.199219 C 565.632812 466.53125 567.132812 465.808594 568.605469 465.03125 C 570.078125 464.253906 571.523438 463.421875 572.9375 462.542969 C 574.351562 461.660156 575.730469 460.726562 577.078125 459.746094 C 578.425781 458.765625 579.734375 457.738281 581.007812 456.660156 C 582.28125 455.585938 583.511719 454.464844 584.703125 453.296875 C 585.894531 452.132812 587.042969 450.925781 588.144531 449.679688 C 589.25 448.429688 590.308594 447.144531 591.320312 445.820312 C 592.332031 444.496094 593.292969 443.136719 594.207031 441.742188 C 595.121094 440.347656 595.980469 438.921875 596.792969 437.46875 C 597.601562 436.011719 598.359375 434.527344 599.0625 433.015625 C 599.765625 431.503906 600.410156 429.972656 601.003906 428.414062 C 601.597656 426.855469 602.132812 425.277344 602.609375 423.683594 C 603.089844 422.085938 603.507812 420.476562 603.871094 418.847656 C 604.230469 417.222656 604.535156 415.582031 604.777344 413.933594 C 605.023438 412.285156 605.207031 410.632812 605.328125 408.96875 C 605.453125 407.308594 605.515625 405.644531 605.519531 403.976562 C 605.53125 402.148438 605.472656 400.320312 605.347656 398.496094 C 605.222656 396.671875 605.027344 394.855469 604.769531 393.042969 C 604.507812 391.234375 604.179688 389.4375 603.78125 387.652344 C 603.386719 385.863281 602.925781 384.097656 602.398438 382.34375 C 601.871094 380.59375 601.277344 378.863281 600.621094 377.15625 C 599.964844 375.449219 599.246094 373.769531 598.464844 372.117188 C 597.683594 370.460938 596.84375 368.839844 595.9375 367.25 C 595.035156 365.660156 594.074219 364.105469 593.058594 362.585938 C 592.039062 361.066406 590.964844 359.585938 589.835938 358.148438 C 588.707031 356.707031 587.527344 355.3125 586.292969 353.964844 C 585.058594 352.613281 583.777344 351.308594 582.449219 350.054688 C 581.117188 348.796875 579.742188 347.59375 578.320312 346.441406 C 576.902344 345.289062 575.441406 344.191406 573.9375 343.148438 C 572.4375 342.105469 570.898438 341.117188 569.324219 340.1875 C 567.746094 339.257812 566.140625 338.390625 564.5 337.582031 C 562.859375 336.773438 561.191406 336.027344 559.492188 335.339844 C 559.234375 335.25 558.972656 335.175781 558.703125 335.113281 C 558.433594 335.054688 558.164062 335.011719 557.890625 334.984375 C 557.617188 334.957031 557.339844 334.945312 557.066406 334.949219 C 556.792969 334.957031 556.519531 334.976562 556.246094 335.015625 C 555.972656 335.050781 555.703125 335.105469 555.4375 335.175781 C 555.171875 335.246094 554.914062 335.332031 554.65625 335.433594 C 554.402344 335.535156 554.152344 335.652344 553.910156 335.78125 C 553.667969 335.914062 553.4375 336.058594 553.210938 336.21875 C 552.988281 336.375 552.773438 336.546875 552.570312 336.734375 C 552.367188 336.917969 552.171875 337.113281 551.992188 337.320312 C 551.8125 337.527344 551.644531 337.746094 551.492188 337.972656 C 551.335938 338.199219 551.195312 338.4375 551.070312 338.679688 C 550.941406 338.925781 550.832031 339.175781 550.734375 339.433594 C 550.640625 339.691406 550.558594 339.953125 550.496094 340.222656 C 550.429688 340.488281 550.378906 340.757812 550.347656 341.03125 C 550.316406 341.304688 550.300781 341.578125 550.300781 341.851562 L 550.300781 401.121094 L 536.492188 414.925781 L 522.6875 401.121094 L 522.6875 341.851562 C 522.6875 341.578125 522.671875 341.304688 522.640625 341.03125 C 522.609375 340.757812 522.558594 340.488281 522.492188 340.222656 C 522.429688 339.953125 522.347656 339.691406 522.253906 339.433594 C 522.15625 339.175781 522.042969 338.925781 521.917969 338.679688 C 521.792969 338.4375 521.652344 338.199219 521.496094 337.972656 C 521.34375 337.746094 521.175781 337.527344 520.996094 337.320312 C 520.816406 337.113281 520.621094 336.917969 520.417969 336.734375 C 520.214844 336.546875 520 336.375 519.777344 336.21875 C 519.550781 336.058594 519.320312 335.914062 519.078125 335.78125 C 518.835938 335.652344 518.585938 335.535156 518.332031 335.433594 C 518.074219 335.332031 517.816406 335.246094 517.550781 335.175781 C 517.285156 335.105469 517.015625 335.050781 516.742188 335.015625 C 516.46875 334.976562 516.195312 334.953125 515.921875 334.949219 C 515.644531 334.945312 515.371094 334.957031 515.097656 334.984375 C 514.824219 335.011719 514.554688 335.054688 514.285156 335.113281 C 514.015625 335.175781 513.753906 335.25 513.496094 335.339844 C 511.796875 336.027344 510.128906 336.773438 508.488281 337.582031 C 506.847656 338.390625 505.242188 339.257812 503.664062 340.1875 C 502.089844 341.117188 500.550781 342.105469 499.050781 343.148438 C 497.546875 344.191406 496.085938 345.289062 494.667969 346.441406 C 493.246094 347.59375 491.871094 348.796875 490.539062 350.054688 C 489.210938 351.308594 487.929688 352.613281 486.695312 353.964844 C 485.460938 355.3125 484.28125 356.707031 483.152344 358.148438 C 482.023438 359.585938 480.949219 361.066406 479.929688 362.585938 C 478.914062 364.105469 477.953125 365.660156 477.050781 367.25 C 476.144531 368.839844 475.304688 370.460938 474.523438 372.117188 C 473.742188 373.769531 473.023438 375.449219 472.367188 377.15625 C 471.707031 378.863281 471.117188 380.59375 470.589844 382.34375 C 470.0625 384.097656 469.601562 385.863281 469.207031 387.652344 C 468.808594 389.4375 468.480469 391.234375 468.21875 393.042969 C 467.960938 394.855469 467.765625 396.671875 467.640625 398.496094 C 467.515625 400.320312 467.457031 402.148438 467.46875 403.976562 C 467.46875 405.644531 467.535156 407.308594 467.660156 408.96875 C 467.78125 410.632812 467.964844 412.285156 468.210938 413.933594 C 468.453125 415.582031 468.757812 417.222656 469.117188 418.847656 C 469.480469 420.476562 469.898438 422.085938 470.378906 423.683594 C 470.855469 425.277344 471.390625 426.855469 471.984375 428.414062 C 472.574219 429.972656 473.222656 431.503906 473.925781 433.015625 C 474.628906 434.527344 475.386719 436.011719 476.195312 437.46875 C 477.007812 438.921875 477.867188 440.347656 478.78125 441.742188 C 479.695312 443.136719 480.65625 444.496094 481.667969 445.820312 C 482.679688 447.144531 483.738281 448.429688 484.84375 449.679688 C 485.945312 450.925781 487.09375 452.132812 488.285156 453.296875 C 489.476562 454.464844 490.707031 455.585938 491.980469 456.660156 C 493.253906 457.738281 494.5625 458.765625 495.910156 459.746094 C 497.257812 460.726562 498.636719 461.660156 500.050781 462.542969 C 501.464844 463.421875 502.910156 464.253906 504.382812 465.03125 C 505.855469 465.808594 507.355469 466.53125 508.882812 467.199219 Z M 508.882812 467.199219 " fill-opacity="1" fill-rule="nonzero"/></g><g fill="#ffffff" fill-opacity="1"><g transform="translate(53.196027, 291.800699)"><g><path d="M 36.859375 -12.5625 C 38.984375 -12.5625 41.039062 -12.878906 43.03125 -13.515625 C 45.03125 -14.160156 46.492188 -14.773438 47.421875 -15.359375 L 48.828125 -16.328125 L 54.734375 -4.5 C 54.546875 -4.351562 54.273438 -4.15625 53.921875 -3.90625 C 53.578125 -3.664062 52.773438 -3.210938 51.515625 -2.546875 C 50.265625 -1.878906 48.925781 -1.300781 47.5 -0.8125 C 46.070312 -0.320312 44.203125 0.117188 41.890625 0.515625 C 39.578125 0.910156 37.1875 1.109375 34.71875 1.109375 C 29.050781 1.109375 23.679688 -0.28125 18.609375 -3.0625 C 13.535156 -5.84375 9.445312 -9.671875 6.34375 -14.546875 C 3.25 -19.421875 1.703125 -24.691406 1.703125 -30.359375 C 1.703125 -34.648438 2.613281 -38.765625 4.4375 -42.703125 C 6.257812 -46.640625 8.679688 -50.007812 11.703125 -52.8125 C 14.734375 -55.625 18.269531 -57.867188 22.3125 -59.546875 C 26.351562 -61.222656 30.488281 -62.0625 34.71875 -62.0625 C 38.65625 -62.0625 42.285156 -61.59375 45.609375 -60.65625 C 48.941406 -59.71875 51.296875 -58.78125 52.671875 -57.84375 L 54.734375 -56.4375 L 48.828125 -44.625 C 48.484375 -44.914062 47.96875 -45.269531 47.28125 -45.6875 C 46.59375 -46.101562 45.210938 -46.65625 43.140625 -47.34375 C 41.078125 -48.039062 38.984375 -48.390625 36.859375 -48.390625 C 33.515625 -48.390625 30.507812 -47.847656 27.84375 -46.765625 C 25.1875 -45.679688 23.082031 -44.25 21.53125 -42.46875 C 19.976562 -40.695312 18.796875 -38.789062 17.984375 -36.75 C 17.171875 -34.707031 16.765625 -32.628906 16.765625 -30.515625 C 16.765625 -25.878906 18.5 -21.726562 21.96875 -18.0625 C 25.445312 -14.394531 30.410156 -12.5625 36.859375 -12.5625 Z M 36.859375 -12.5625 "/></g></g></g><g fill="#ffffff" fill-opacity="1"><g transform="translate(108.813062, 291.800699)"><g><path d="M 7.015625 -4.6875 C 3.472656 -8.550781 1.703125 -13.289062 1.703125 -18.90625 C 1.703125 -24.519531 3.472656 -29.269531 7.015625 -33.15625 C 10.566406 -37.050781 15.070312 -39 20.53125 -39 C 25.5625 -39 29.703125 -37.425781 32.953125 -34.28125 L 32.953125 -37.890625 L 46.03125 -37.890625 L 46.03125 0 L 33.09375 0 L 33.09375 -4.28125 L 32.953125 -4.28125 C 29.703125 -0.6875 25.5625 1.109375 20.53125 1.109375 C 15.070312 1.109375 10.566406 -0.820312 7.015625 -4.6875 Z M 18.140625 -25.328125 C 16.441406 -23.660156 15.59375 -21.519531 15.59375 -18.90625 C 15.59375 -16.300781 16.40625 -14.171875 18.03125 -12.515625 C 19.65625 -10.867188 21.796875 -10.046875 24.453125 -10.046875 C 27.015625 -10.046875 29.117188 -10.882812 30.765625 -12.5625 C 32.421875 -14.238281 33.25 -16.351562 33.25 -18.90625 C 33.25 -21.519531 32.394531 -23.660156 30.6875 -25.328125 C 28.988281 -27.003906 26.910156 -27.84375 24.453125 -27.84375 C 21.941406 -27.84375 19.835938 -27.003906 18.140625 -25.328125 Z M 18.140625 -25.328125 "/></g></g></g><g fill="#ffffff" fill-opacity="1"><g transform="translate(159.259858, 291.800699)"><g><path d="M 20.90625 -39 C 23.070312 -39 25.210938 -38.753906 27.328125 -38.265625 C 29.453125 -37.773438 31.03125 -37.285156 32.0625 -36.796875 L 33.609375 -36.046875 L 29.328125 -27.484375 C 26.367188 -29.054688 23.5625 -29.84375 20.90625 -29.84375 C 19.425781 -29.84375 18.378906 -29.679688 17.765625 -29.359375 C 17.148438 -29.046875 16.84375 -28.445312 16.84375 -27.5625 C 16.84375 -27.363281 16.863281 -27.164062 16.90625 -26.96875 C 16.957031 -26.769531 17.054688 -26.582031 17.203125 -26.40625 C 17.359375 -26.238281 17.492188 -26.09375 17.609375 -25.96875 C 17.734375 -25.84375 17.941406 -25.707031 18.234375 -25.5625 C 18.535156 -25.414062 18.769531 -25.304688 18.9375 -25.234375 C 19.113281 -25.160156 19.398438 -25.046875 19.796875 -24.890625 C 20.191406 -24.742188 20.488281 -24.632812 20.6875 -24.5625 C 20.882812 -24.488281 21.21875 -24.378906 21.6875 -24.234375 C 22.15625 -24.085938 22.507812 -23.988281 22.75 -23.9375 C 24.28125 -23.488281 25.609375 -22.992188 26.734375 -22.453125 C 27.867188 -21.910156 29.0625 -21.171875 30.3125 -20.234375 C 31.570312 -19.304688 32.546875 -18.125 33.234375 -16.6875 C 33.929688 -15.257812 34.28125 -13.632812 34.28125 -11.8125 C 34.28125 -3.195312 28.296875 1.109375 16.328125 1.109375 C 13.617188 1.109375 11.046875 0.691406 8.609375 -0.140625 C 6.171875 -0.984375 4.410156 -1.820312 3.328125 -2.65625 L 1.703125 -3.984375 L 7.015625 -12.921875 C 7.410156 -12.578125 7.925781 -12.171875 8.5625 -11.703125 C 9.207031 -11.234375 10.363281 -10.59375 12.03125 -9.78125 C 13.707031 -8.96875 15.164062 -8.5625 16.40625 -8.5625 C 19.113281 -8.5625 20.46875 -9.472656 20.46875 -11.296875 C 20.46875 -12.140625 20.117188 -12.796875 19.421875 -13.265625 C 18.734375 -13.734375 17.5625 -14.257812 15.90625 -14.84375 C 14.257812 -15.4375 12.972656 -15.976562 12.046875 -16.46875 C 9.679688 -17.707031 7.804688 -19.097656 6.421875 -20.640625 C 5.046875 -22.191406 4.359375 -24.25 4.359375 -26.8125 C 4.359375 -30.65625 5.847656 -33.644531 8.828125 -35.78125 C 11.804688 -37.925781 15.832031 -39 20.90625 -39 Z M 20.90625 -39 "/></g></g></g><g fill="#ffffff" fill-opacity="1"><g transform="translate(195.599276, 291.800699)"><g><path d="M 7.015625 -4.6875 C 3.472656 -8.550781 1.703125 -13.289062 1.703125 -18.90625 C 1.703125 -24.519531 3.472656 -29.269531 7.015625 -33.15625 C 10.566406 -37.050781 15.070312 -39 20.53125 -39 C 25.5625 -39 29.703125 -37.425781 32.953125 -34.28125 L 32.953125 -37.890625 L 46.03125 -37.890625 L 46.03125 0 L 33.09375 0 L 33.09375 -4.28125 L 32.953125 -4.28125 C 29.703125 -0.6875 25.5625 1.109375 20.53125 1.109375 C 15.070312 1.109375 10.566406 -0.820312 7.015625 -4.6875 Z M 18.140625 -25.328125 C 16.441406 -23.660156 15.59375 -21.519531 15.59375 -18.90625 C 15.59375 -16.300781 16.40625 -14.171875 18.03125 -12.515625 C 19.65625 -10.867188 21.796875 -10.046875 24.453125 -10.046875 C 27.015625 -10.046875 29.117188 -10.882812 30.765625 -12.5625 C 32.421875 -14.238281 33.25 -16.351562 33.25 -18.90625 C 33.25 -21.519531 32.394531 -23.660156 30.6875 -25.328125 C 28.988281 -27.003906 26.910156 -27.84375 24.453125 -27.84375 C 21.941406 -27.84375 19.835938 -27.003906 18.140625 -25.328125 Z M 18.140625 -25.328125 "/></g></g></g><g fill="#ffffff" fill-opacity="1"><g transform="translate(246.046072, 291.800699)"><g/></g></g><g fill="#ffffff" fill-opacity="1"><g transform="translate(266.21001, 291.800699)"><g><path d="M 7.015625 -4.6875 C 3.472656 -8.550781 1.703125 -13.289062 1.703125 -18.90625 C 1.703125 -24.519531 3.472656 -29.269531 7.015625 -33.15625 C 10.566406 -37.050781 15.070312 -39 20.53125 -39 C 25.5625 -39 29.703125 -37.425781 32.953125 -34.28125 L 32.953125 -63.53125 L 46.03125 -63.53125 L 46.03125 0 L 33.09375 0 L 33.09375 -4.28125 L 32.953125 -4.28125 C 29.703125 -0.6875 25.5625 1.109375 20.53125 1.109375 C 15.070312 1.109375 10.566406 -0.820312 7.015625 -4.6875 Z M 18.140625 -25.328125 C 16.441406 -23.660156 15.59375 -21.519531 15.59375 -18.90625 C 15.59375 -16.300781 16.40625 -14.171875 18.03125 -12.515625 C 19.65625 -10.867188 21.796875 -10.046875 24.453125 -10.046875 C 27.015625 -10.046875 29.117188 -10.882812 30.765625 -12.5625 C 32.421875 -14.238281 33.25 -16.351562 33.25 -18.90625 C 33.25 -21.519531 32.394531 -23.660156 30.6875 -25.328125 C 28.988281 -27.003906 26.910156 -27.84375 24.453125 -27.84375 C 21.941406 -27.84375 19.835938 -27.003906 18.140625 -25.328125 Z M 18.140625 -25.328125 "/></g></g></g><g fill="#ffffff" fill-opacity="1"><g transform="translate(316.656806, 291.800699)"><g><path d="M 42.78125 -17.140625 L 15.296875 -17.140625 C 15.296875 -14.484375 16.15625 -12.515625 17.875 -11.234375 C 19.601562 -9.953125 21.476562 -9.3125 23.5 -9.3125 C 25.613281 -9.3125 27.285156 -9.59375 28.515625 -10.15625 C 29.742188 -10.71875 31.148438 -11.835938 32.734375 -13.515625 L 42.1875 -8.796875 C 38.238281 -2.191406 31.6875 1.109375 22.53125 1.109375 C 16.820312 1.109375 11.921875 -0.847656 7.828125 -4.765625 C 3.742188 -8.679688 1.703125 -13.394531 1.703125 -18.90625 C 1.703125 -24.425781 3.742188 -29.15625 7.828125 -33.09375 C 11.921875 -37.03125 16.820312 -39 22.53125 -39 C 28.539062 -39 33.425781 -37.265625 37.1875 -33.796875 C 40.957031 -30.328125 42.84375 -25.363281 42.84375 -18.90625 C 42.84375 -18.019531 42.820312 -17.429688 42.78125 -17.140625 Z M 15.65625 -24.375 L 30.0625 -24.375 C 29.769531 -26.34375 28.992188 -27.859375 27.734375 -28.921875 C 26.484375 -29.984375 24.875 -30.515625 22.90625 -30.515625 C 20.738281 -30.515625 19.015625 -29.945312 17.734375 -28.8125 C 16.453125 -27.675781 15.757812 -26.195312 15.65625 -24.375 Z M 15.65625 -24.375 "/></g></g></g><g fill="#ffffff" fill-opacity="1"><g transform="translate(361.194758, 291.800699)"><g/></g></g><g fill="#ffffff" fill-opacity="1"><g transform="translate(381.358679, 291.800699)"><g><path d="M 4.4375 0 L 4.4375 -37.890625 L 17.515625 -37.890625 L 17.515625 -32.4375 L 17.65625 -32.4375 C 17.75 -32.632812 17.90625 -32.878906 18.125 -33.171875 C 18.351562 -33.460938 18.835938 -33.976562 19.578125 -34.71875 C 20.316406 -35.457031 21.101562 -36.125 21.9375 -36.71875 C 22.78125 -37.3125 23.863281 -37.835938 25.1875 -38.296875 C 26.519531 -38.765625 27.875 -39 29.25 -39 C 30.675781 -39 32.078125 -38.800781 33.453125 -38.40625 C 34.835938 -38.019531 35.851562 -37.628906 36.5 -37.234375 L 37.53125 -36.640625 L 32.0625 -25.5625 C 30.4375 -26.9375 28.171875 -27.625 25.265625 -27.625 C 23.691406 -27.625 22.335938 -27.28125 21.203125 -26.59375 C 20.066406 -25.90625 19.265625 -25.066406 18.796875 -24.078125 C 18.328125 -23.097656 17.992188 -22.257812 17.796875 -21.5625 C 17.609375 -20.875 17.515625 -20.335938 17.515625 -19.953125 L 17.515625 0 Z M 4.4375 0 "/></g></g></g><g fill="#ffffff" fill-opacity="1"><g transform="translate(418.14124, 291.800699)"><g><path d="M 42.78125 -17.140625 L 15.296875 -17.140625 C 15.296875 -14.484375 16.15625 -12.515625 17.875 -11.234375 C 19.601562 -9.953125 21.476562 -9.3125 23.5 -9.3125 C 25.613281 -9.3125 27.285156 -9.59375 28.515625 -10.15625 C 29.742188 -10.71875 31.148438 -11.835938 32.734375 -13.515625 L 42.1875 -8.796875 C 38.238281 -2.191406 31.6875 1.109375 22.53125 1.109375 C 16.820312 1.109375 11.921875 -0.847656 7.828125 -4.765625 C 3.742188 -8.679688 1.703125 -13.394531 1.703125 -18.90625 C 1.703125 -24.425781 3.742188 -29.15625 7.828125 -33.09375 C 11.921875 -37.03125 16.820312 -39 22.53125 -39 C 28.539062 -39 33.425781 -37.265625 37.1875 -33.796875 C 40.957031 -30.328125 42.84375 -25.363281 42.84375 -18.90625 C 42.84375 -18.019531 42.820312 -17.429688 42.78125 -17.140625 Z M 15.65625 -24.375 L 30.0625 -24.375 C 29.769531 -26.34375 28.992188 -27.859375 27.734375 -28.921875 C 26.484375 -29.984375 24.875 -30.515625 22.90625 -30.515625 C 20.738281 -30.515625 19.015625 -29.945312 17.734375 -28.8125 C 16.453125 -27.675781 15.757812 -26.195312 15.65625 -24.375 Z M 15.65625 -24.375 "/></g></g></g><g fill="#ffffff" fill-opacity="1"><g transform="translate(462.679176, 291.800699)"><g><path d="M 43.4375 -33.203125 C 46.976562 -29.335938 48.75 -24.597656 48.75 -18.984375 C 48.75 -13.367188 46.976562 -8.613281 43.4375 -4.71875 C 39.894531 -0.832031 35.390625 1.109375 29.921875 1.109375 C 24.898438 1.109375 20.765625 -0.46875 17.515625 -3.625 L 17.515625 19.203125 L 4.4375 19.203125 L 4.4375 -37.890625 L 17.359375 -37.890625 L 17.359375 -33.609375 L 17.515625 -33.609375 C 20.765625 -37.203125 24.898438 -39 29.921875 -39 C 35.390625 -39 39.894531 -37.066406 43.4375 -33.203125 Z M 32.3125 -12.5625 C 34.019531 -14.238281 34.875 -16.378906 34.875 -18.984375 C 34.875 -21.597656 34.0625 -23.726562 32.4375 -25.375 C 30.8125 -27.019531 28.664062 -27.84375 26 -27.84375 C 23.4375 -27.84375 21.332031 -27.003906 19.6875 -25.328125 C 18.039062 -23.660156 17.21875 -21.546875 17.21875 -18.984375 C 17.21875 -16.378906 18.066406 -14.238281 19.765625 -12.5625 C 21.460938 -10.882812 23.539062 -10.046875 26 -10.046875 C 28.507812 -10.046875 30.613281 -10.882812 32.3125 -12.5625 Z M 32.3125 -12.5625 "/></g></g></g><g fill="#ffffff" fill-opacity="1"><g transform="translate(513.125956, 291.800699)"><g><path d="M 16.765625 -37.890625 L 16.765625 -19.875 C 16.765625 -16.132812 17.332031 -13.472656 18.46875 -11.890625 C 19.601562 -10.316406 21.523438 -9.53125 24.234375 -9.53125 C 26.941406 -9.53125 28.859375 -10.316406 29.984375 -11.890625 C 31.117188 -13.472656 31.6875 -16.132812 31.6875 -19.875 L 31.6875 -37.890625 L 44.765625 -37.890625 L 44.765625 -16.703125 C 44.765625 -10.390625 43.125 -5.84375 39.84375 -3.0625 C 36.570312 -0.28125 31.363281 1.109375 24.21875 1.109375 C 17.082031 1.109375 11.875 -0.28125 8.59375 -3.0625 C 5.320312 -5.84375 3.6875 -10.390625 3.6875 -16.703125 L 3.6875 -37.890625 Z M 16.765625 -37.890625 "/></g></g></g><g fill="#ffffff" fill-opacity="1"><g transform="translate(561.578491, 291.800699)"><g><path d="M 42.78125 -17.140625 L 15.296875 -17.140625 C 15.296875 -14.484375 16.15625 -12.515625 17.875 -11.234375 C 19.601562 -9.953125 21.476562 -9.3125 23.5 -9.3125 C 25.613281 -9.3125 27.285156 -9.59375 28.515625 -10.15625 C 29.742188 -10.71875 31.148438 -11.835938 32.734375 -13.515625 L 42.1875 -8.796875 C 38.238281 -2.191406 31.6875 1.109375 22.53125 1.109375 C 16.820312 1.109375 11.921875 -0.847656 7.828125 -4.765625 C 3.742188 -8.679688 1.703125 -13.394531 1.703125 -18.90625 C 1.703125 -24.425781 3.742188 -29.15625 7.828125 -33.09375 C 11.921875 -37.03125 16.820312 -39 22.53125 -39 C 28.539062 -39 33.425781 -37.265625 37.1875 -33.796875 C 40.957031 -30.328125 42.84375 -25.363281 42.84375 -18.90625 C 42.84375 -18.019531 42.820312 -17.429688 42.78125 -17.140625 Z M 15.65625 -24.375 L 30.0625 -24.375 C 29.769531 -26.34375 28.992188 -27.859375 27.734375 -28.921875 C 26.484375 -29.984375 24.875 -30.515625 22.90625 -30.515625 C 20.738281 -30.515625 19.015625 -29.945312 17.734375 -28.8125 C 16.453125 -27.675781 15.757812 -26.195312 15.65625 -24.375 Z M 15.65625 -24.375 "/></g></g></g><g fill="#ffffff" fill-opacity="1"><g transform="translate(606.116426, 291.800699)"><g><path d="M 20.90625 -39 C 23.070312 -39 25.210938 -38.753906 27.328125 -38.265625 C 29.453125 -37.773438 31.03125 -37.285156 32.0625 -36.796875 L 33.609375 -36.046875 L 29.328125 -27.484375 C 26.367188 -29.054688 23.5625 -29.84375 20.90625 -29.84375 C 19.425781 -29.84375 18.378906 -29.679688 17.765625 -29.359375 C 17.148438 -29.046875 16.84375 -28.445312 16.84375 -27.5625 C 16.84375 -27.363281 16.863281 -27.164062 16.90625 -26.96875 C 16.957031 -26.769531 17.054688 -26.582031 17.203125 -26.40625 C 17.359375 -26.238281 17.492188 -26.09375 17.609375 -25.96875 C 17.734375 -25.84375 17.941406 -25.707031 18.234375 -25.5625 C 18.535156 -25.414062 18.769531 -25.304688 18.9375 -25.234375 C 19.113281 -25.160156 19.398438 -25.046875 19.796875 -24.890625 C 20.191406 -24.742188 20.488281 -24.632812 20.6875 -24.5625 C 20.882812 -24.488281 21.21875 -24.378906 21.6875 -24.234375 C 22.15625 -24.085938 22.507812 -23.988281 22.75 -23.9375 C 24.28125 -23.488281 25.609375 -22.992188 26.734375 -22.453125 C 27.867188 -21.910156 29.0625 -21.171875 30.3125 -20.234375 C 31.570312 -19.304688 32.546875 -18.125 33.234375 -16.6875 C 33.929688 -15.257812 34.28125 -13.632812 34.28125 -11.8125 C 34.28125 -3.195312 28.296875 1.109375 16.328125 1.109375 C 13.617188 1.109375 11.046875 0.691406 8.609375 -0.140625 C 6.171875 -0.984375 4.410156 -1.820312 3.328125 -2.65625 L 1.703125 -3.984375 L 7.015625 -12.921875 C 7.410156 -12.578125 7.925781 -12.171875 8.5625 -11.703125 C 9.207031 -11.234375 10.363281 -10.59375 12.03125 -9.78125 C 13.707031 -8.96875 15.164062 -8.5625 16.40625 -8.5625 C 19.113281 -8.5625 20.46875 -9.472656 20.46875 -11.296875 C 20.46875 -12.140625 20.117188 -12.796875 19.421875 -13.265625 C 18.734375 -13.734375 17.5625 -14.257812 15.90625 -14.84375 C 14.257812 -15.4375 12.972656 -15.976562 12.046875 -16.46875 C 9.679688 -17.707031 7.804688 -19.097656 6.421875 -20.640625 C 5.046875 -22.191406 4.359375 -24.25 4.359375 -26.8125 C 4.359375 -30.65625 5.847656 -33.644531 8.828125 -35.78125 C 11.804688 -37.925781 15.832031 -39 20.90625 -39 Z M 20.90625 -39 "/></g></g></g><g fill="#ffffff" fill-opacity="1"><g transform="translate(642.455844, 291.800699)"><g><path d="M 6.65625 -37.890625 L 6.65625 -52.015625 L 19.71875 -52.015625 L 19.71875 -37.890625 L 27.703125 -37.890625 L 27.703125 -27.921875 L 19.71875 -27.921875 L 19.71875 -15.890625 C 19.71875 -12.390625 20.703125 -10.640625 22.671875 -10.640625 C 23.171875 -10.640625 23.691406 -10.738281 24.234375 -10.9375 C 24.773438 -11.132812 25.191406 -11.332031 25.484375 -11.53125 L 25.9375 -11.8125 L 29.1875 -1.25 C 26.375 0.320312 23.171875 1.109375 19.578125 1.109375 C 17.117188 1.109375 15 0.675781 13.21875 -0.1875 C 11.445312 -1.050781 10.101562 -2.207031 9.1875 -3.65625 C 8.28125 -5.113281 7.628906 -6.640625 7.234375 -8.234375 C 6.847656 -9.835938 6.65625 -11.550781 6.65625 -13.375 L 6.65625 -27.921875 L 1.1875 -27.921875 L 1.1875 -37.890625 Z M 6.65625 -37.890625 "/></g></g></g><g fill="#ffffff" fill-opacity="1"><g transform="translate(671.630811, 291.800699)"><g><path d="M 8.015625 -4.5 C 3.804688 -8.25 1.703125 -13.050781 1.703125 -18.90625 C 1.703125 -24.769531 3.890625 -29.582031 8.265625 -33.34375 C 12.648438 -37.113281 18.070312 -39 24.53125 -39 C 30.882812 -39 36.238281 -37.101562 40.59375 -33.3125 C 44.945312 -29.519531 47.125 -24.71875 47.125 -18.90625 C 47.125 -13.09375 44.992188 -8.300781 40.734375 -4.53125 C 36.484375 -0.769531 31.082031 1.109375 24.53125 1.109375 C 17.726562 1.109375 12.222656 -0.757812 8.015625 -4.5 Z M 18.140625 -25.328125 C 16.441406 -23.660156 15.59375 -21.519531 15.59375 -18.90625 C 15.59375 -16.300781 16.40625 -14.171875 18.03125 -12.515625 C 19.65625 -10.867188 21.796875 -10.046875 24.453125 -10.046875 C 27.015625 -10.046875 29.117188 -10.882812 30.765625 -12.5625 C 32.421875 -14.238281 33.25 -16.351562 33.25 -18.90625 C 33.25 -21.519531 32.394531 -23.660156 30.6875 -25.328125 C 28.988281 -27.003906 26.910156 -27.84375 24.453125 -27.84375 C 21.941406 -27.84375 19.835938 -27.003906 18.140625 -25.328125 Z M 18.140625 -25.328125 "/></g></g></g><g fill="#ffffff" fill-opacity="1"><g transform="translate(720.452665, 291.800699)"><g><path d="M 20.90625 -39 C 23.070312 -39 25.210938 -38.753906 27.328125 -38.265625 C 29.453125 -37.773438 31.03125 -37.285156 32.0625 -36.796875 L 33.609375 -36.046875 L 29.328125 -27.484375 C 26.367188 -29.054688 23.5625 -29.84375 20.90625 -29.84375 C 19.425781 -29.84375 18.378906 -29.679688 17.765625 -29.359375 C 17.148438 -29.046875 16.84375 -28.445312 16.84375 -27.5625 C 16.84375 -27.363281 16.863281 -27.164062 16.90625 -26.96875 C 16.957031 -26.769531 17.054688 -26.582031 17.203125 -26.40625 C 17.359375 -26.238281 17.492188 -26.09375 17.609375 -25.96875 C 17.734375 -25.84375 17.941406 -25.707031 18.234375 -25.5625 C 18.535156 -25.414062 18.769531 -25.304688 18.9375 -25.234375 C 19.113281 -25.160156 19.398438 -25.046875 19.796875 -24.890625 C 20.191406 -24.742188 20.488281 -24.632812 20.6875 -24.5625 C 20.882812 -24.488281 21.21875 -24.378906 21.6875 -24.234375 C 22.15625 -24.085938 22.507812 -23.988281 22.75 -23.9375 C 24.28125 -23.488281 25.609375 -22.992188 26.734375 -22.453125 C 27.867188 -21.910156 29.0625 -21.171875 30.3125 -20.234375 C 31.570312 -19.304688 32.546875 -18.125 33.234375 -16.6875 C 33.929688 -15.257812 34.28125 -13.632812 34.28125 -11.8125 C 34.28125 -3.195312 28.296875 1.109375 16.328125 1.109375 C 13.617188 1.109375 11.046875 0.691406 8.609375 -0.140625 C 6.171875 -0.984375 4.410156 -1.820312 3.328125 -2.65625 L 1.703125 -3.984375 L 7.015625 -12.921875 C 7.410156 -12.578125 7.925781 -12.171875 8.5625 -11.703125 C 9.207031 -11.234375 10.363281 -10.59375 12.03125 -9.78125 C 13.707031 -8.96875 15.164062 -8.5625 16.40625 -8.5625 C 19.113281 -8.5625 20.46875 -9.472656 20.46875 -11.296875 C 20.46875 -12.140625 20.117188 -12.796875 19.421875 -13.265625 C 18.734375 -13.734375 17.5625 -14.257812 15.90625 -14.84375 C 14.257812 -15.4375 12.972656 -15.976562 12.046875 -16.46875 C 9.679688 -17.707031 7.804688 -19.097656 6.421875 -20.640625 C 5.046875 -22.191406 4.359375 -24.25 4.359375 -26.8125 C 4.359375 -30.65625 5.847656 -33.644531 8.828125 -35.78125 C 11.804688 -37.925781 15.832031 -39 20.90625 -39 Z M 20.90625 -39 "/></g></g></g></svg>