<svg xmlns="http://www.w3.org/2000/svg" xmlns:xlink="http://www.w3.org/1999/xlink" width="1080" zoomAndPan="magnify" viewBox="0 0 810 809.999993" height="1080" preserveAspectRatio="xMidYMid meet" version="1.0"><defs><g/><clipPath id="eb697ea4a1"><path d="M 81 90.5 L 710 90.5 L 710 719.5 L 81 719.5 Z M 81 90.5 " clip-rule="nonzero"/></clipPath><clipPath id="ef46998e46"><path d="M 395.5 90.5 C 221.804688 90.5 81 231.304688 81 405 C 81 578.695312 221.804688 719.5 395.5 719.5 C 569.195312 719.5 710 578.695312 710 405 C 710 231.304688 569.195312 90.5 395.5 90.5 Z M 395.5 90.5 " clip-rule="nonzero"/></clipPath></defs><g clip-path="url(#eb697ea4a1)"><g clip-path="url(#ef46998e46)"><path fill="#fefcfd" d="M 81 90.5 L 710 90.5 L 710 719.5 L 81 719.5 Z M 81 90.5 " fill-opacity="1" fill-rule="nonzero"/></g></g><g fill="#d50401" fill-opacity="1"><g transform="translate(90.888186, 529.716838)"><g><path d="M 30.765625 -286.015625 L 278.109375 -286.015625 L 278.109375 -217.421875 L 122.640625 -217.421875 L 122.640625 -177.921875 L 255.671875 -177.921875 L 255.671875 -112.25 L 122.640625 -112.25 L 122.640625 -68.59375 L 281.03125 -68.59375 L 281.03125 0 L 30.765625 0 Z M 30.765625 -286.015625 "/></g></g></g><g fill="#d50401" fill-opacity="1"><g transform="translate(391.039816, 529.716838)"><g><path d="M 154.640625 -286.015625 C 254.691406 -286.015625 304.71875 -238.34375 304.71875 -143 C 304.71875 -47.664062 254.691406 0 154.640625 0 L 30.765625 0 L 30.765625 -286.015625 Z M 122.640625 -68.59375 L 152.984375 -68.59375 C 191.503906 -68.59375 210.765625 -89.238281 210.765625 -130.53125 L 210.765625 -155.484375 C 210.765625 -196.773438 191.503906 -217.421875 152.984375 -217.421875 L 122.640625 -217.421875 Z M 122.640625 -68.59375 "/></g></g></g></svg>