<svg xmlns="http://www.w3.org/2000/svg" xmlns:xlink="http://www.w3.org/1999/xlink" width="1080" zoomAndPan="magnify" viewBox="0 0 810 809.999993" height="1080" preserveAspectRatio="xMidYMid meet" version="1.0"><defs><g/><clipPath id="33e8ed6b5c"><path d="M 199.445312 342.363281 L 610.445312 342.363281 L 610.445312 753.363281 L 199.445312 753.363281 Z M 199.445312 342.363281 " clip-rule="nonzero"/></clipPath></defs><rect x="-81" width="972" fill="#ffffff" y="-80.999999" height="971.999992" fill-opacity="1"/><rect x="-81" width="972" fill="#323131" y="-80.999999" height="971.999992" fill-opacity="1"/><path fill="#807c7c" d="M 312.167969 514.761719 C 308.515625 514.761719 305.539062 511.785156 305.539062 508.132812 C 305.539062 504.480469 308.515625 501.5 312.167969 501.5 C 315.820312 501.5 318.796875 504.480469 318.796875 508.132812 C 318.796875 511.785156 315.820312 514.761719 312.167969 514.761719 Z M 312.167969 488.238281 C 301.1875 488.238281 292.277344 497.148438 292.277344 508.132812 C 292.277344 519.113281 301.1875 528.023438 312.167969 528.023438 C 323.148438 528.023438 332.058594 519.113281 332.058594 508.132812 C 332.058594 497.148438 323.148438 488.238281 312.167969 488.238281 " fill-opacity="1" fill-rule="nonzero"/><path fill="#807c7c" d="M 524.351562 514.761719 C 520.699219 514.761719 517.722656 511.785156 517.722656 508.132812 C 517.722656 504.480469 520.699219 501.5 524.351562 501.5 C 528.003906 501.5 530.980469 504.480469 530.980469 508.132812 C 530.980469 511.785156 528.003906 514.761719 524.351562 514.761719 Z M 524.351562 488.238281 C 513.371094 488.238281 504.460938 497.148438 504.460938 508.132812 C 504.460938 519.113281 513.371094 528.023438 524.351562 528.023438 C 535.332031 528.023438 544.242188 519.113281 544.242188 508.132812 C 544.242188 497.148438 535.332031 488.238281 524.351562 488.238281 " fill-opacity="1" fill-rule="nonzero"/><g clip-path="url(#33e8ed6b5c)"><path fill="#807c7c" d="M 491.199219 508.132812 C 491.199219 489.84375 506.066406 474.976562 524.351562 474.976562 C 542.636719 474.976562 557.503906 489.84375 557.503906 508.132812 C 557.503906 526.417969 542.636719 541.285156 524.351562 541.285156 C 506.066406 541.285156 491.199219 526.417969 491.199219 508.132812 Z M 597.289062 563.714844 L 575.300781 574.699219 L 574.730469 577.988281 C 570.351562 602.828125 560.792969 625.957031 546.265625 646.652344 L 544.375 649.398438 L 552.144531 672.707031 L 529.789062 695.0625 L 506.480469 687.289062 L 503.734375 689.183594 C 483.039062 703.710938 459.910156 713.269531 435.070312 717.648438 L 431.78125 718.21875 L 420.796875 740.207031 L 389.199219 740.207031 L 378.214844 718.21875 L 374.925781 717.648438 C 350.085938 713.269531 326.957031 703.710938 306.261719 689.183594 L 303.515625 687.289062 L 280.207031 695.0625 L 257.851562 672.707031 L 265.625 649.398438 L 263.734375 646.652344 C 249.203125 625.957031 239.644531 602.828125 235.265625 577.988281 L 234.695312 574.699219 L 212.707031 563.714844 L 212.707031 554.546875 L 239.230469 554.546875 L 239.230469 571.355469 L 256.558594 582.910156 C 260.3125 598.890625 266.609375 614.066406 275.308594 628.105469 L 271.21875 648.542969 L 304.371094 681.695312 L 324.808594 677.605469 C 338.847656 686.308594 354.023438 692.601562 370.003906 696.355469 L 381.558594 713.683594 L 428.4375 713.683594 L 439.992188 696.355469 C 455.972656 692.601562 471.148438 686.308594 485.1875 677.605469 L 505.625 681.695312 L 538.777344 648.542969 L 534.6875 628.105469 C 543.390625 614.066406 549.683594 598.890625 553.4375 582.910156 L 570.765625 571.355469 L 570.765625 554.546875 L 597.289062 554.546875 Z M 279.015625 508.132812 C 279.015625 489.84375 293.882812 474.976562 312.167969 474.976562 C 330.453125 474.976562 345.320312 489.84375 345.320312 508.132812 C 345.320312 526.417969 330.453125 541.285156 312.167969 541.285156 C 293.882812 541.285156 279.015625 526.417969 279.015625 508.132812 Z M 219.335938 514.761719 C 215.6875 514.761719 212.707031 511.785156 212.707031 508.132812 L 212.707031 501.5 L 266.296875 501.5 C 265.960938 503.675781 265.753906 505.878906 265.753906 508.132812 C 265.753906 510.386719 265.960938 512.585938 266.296875 514.761719 Z M 251.273438 435.503906 C 252 437.550781 252.492188 439.648438 252.492188 441.824219 C 252.492188 452.804688 243.582031 461.714844 232.597656 461.714844 C 227.808594 461.714844 223.300781 459.957031 219.726562 456.820312 C 226.5625 445.8125 237.882812 437.808594 251.273438 435.503906 Z M 482.46875 488.238281 L 438.152344 488.238281 L 438.152344 435.195312 L 517.722656 435.195312 L 517.722656 462.261719 C 502.128906 464.488281 489.023438 474.484375 482.46875 488.238281 Z M 478.480469 514.761719 L 358.039062 514.761719 C 358.375 512.585938 358.582031 510.386719 358.582031 508.132812 C 358.582031 505.878906 358.375 503.675781 358.039062 501.5 L 478.480469 501.5 C 478.144531 503.675781 477.9375 505.878906 477.9375 508.132812 C 477.9375 510.386719 478.144531 512.585938 478.480469 514.761719 Z M 332.058594 435.195312 L 424.890625 435.195312 L 424.890625 488.238281 L 354.050781 488.238281 C 349.441406 478.628906 341.667969 470.859375 332.058594 466.25 Z M 342.367188 408.671875 L 358.582031 408.671875 C 365.886719 408.671875 371.84375 414.628906 371.84375 421.933594 L 335.066406 421.933594 C 336.980469 417.167969 339.441406 412.738281 342.367188 408.671875 Z M 424.890625 421.933594 L 385.105469 421.933594 C 385.105469 407.296875 373.21875 395.410156 358.582031 395.410156 L 355.214844 395.410156 C 366.09375 387.042969 379.613281 382.148438 393.859375 382.148438 L 424.890625 382.148438 Z M 456.414062 382.148438 C 482.625 382.148438 505.675781 398.15625 515.207031 421.933594 L 438.152344 421.933594 L 438.152344 382.148438 Z M 486.871094 541.285156 L 344.597656 541.285156 C 348.480469 537.476562 351.667969 532.996094 354.050781 528.023438 L 482.46875 528.023438 C 484.851562 532.996094 488.039062 537.476562 491.921875 541.285156 Z M 372.519531 554.546875 C 373.371094 558.769531 375.054688 562.679688 377.363281 566.175781 L 348.972656 594.5625 C 339.753906 583.503906 333.769531 569.671875 332.398438 554.546875 Z M 405 567.808594 C 396.375 567.808594 389.070312 562.238281 386.324219 554.546875 L 423.671875 554.546875 C 420.925781 562.238281 413.625 567.808594 405 567.808594 Z M 461.023438 594.5625 L 432.636719 566.175781 C 434.941406 562.679688 436.625 558.769531 437.476562 554.546875 L 477.597656 554.546875 C 476.226562 569.671875 470.242188 583.503906 461.023438 594.5625 Z M 411.628906 580.394531 C 415.851562 579.542969 419.761719 577.859375 423.257812 575.550781 L 451.644531 603.941406 C 440.585938 613.160156 426.753906 619.144531 411.628906 620.515625 Z M 386.738281 575.550781 C 390.234375 577.859375 394.144531 579.542969 398.367188 580.394531 L 398.367188 620.515625 C 383.242188 619.144531 369.410156 613.160156 358.351562 603.941406 Z M 319.136719 554.546875 C 322.554688 598.992188 359.695312 634.117188 405 634.117188 C 450.300781 634.117188 487.441406 598.992188 490.859375 554.546875 L 517.382812 554.546875 C 513.914062 613.601562 464.90625 660.636719 405 660.636719 C 345.089844 660.636719 296.082031 613.601562 292.613281 554.546875 Z M 524.402344 644.191406 L 501.273438 667.320312 L 482.546875 663.566406 L 480.292969 665.015625 C 466.203125 674.082031 450.816406 680.480469 434.550781 684 L 431.910156 684.546875 L 421.34375 700.421875 L 388.65625 700.421875 L 378.085938 684.546875 L 375.445312 684 C 359.179688 680.480469 343.792969 674.082031 329.703125 665.015625 L 327.449219 663.566406 L 308.722656 667.320312 L 285.59375 644.191406 L 289.347656 625.464844 L 287.898438 623.210938 C 278.832031 609.121094 272.433594 593.734375 268.914062 577.46875 L 268.367188 574.828125 L 252.492188 564.257812 L 252.492188 554.546875 L 279.351562 554.546875 C 282.820312 620.933594 337.757812 673.898438 405 673.898438 C 472.238281 673.898438 527.175781 620.933594 530.644531 554.546875 L 557.503906 554.546875 L 557.503906 564.257812 L 541.628906 574.828125 L 541.082031 577.46875 C 537.5625 593.734375 531.164062 609.121094 522.097656 623.210938 L 520.648438 625.464844 Z M 303.777344 427.941406 L 306.523438 420.402344 C 320.613281 381.65625 357.78125 355.625 399.015625 355.625 L 448.980469 355.625 C 494.203125 355.625 533.46875 386.265625 544.449219 430.167969 L 545.539062 434.570312 L 568.253906 437.421875 C 584.804688 439.492188 597.289062 453.636719 597.289062 470.316406 L 597.289062 488.238281 L 566.234375 488.238281 C 559.679688 474.484375 546.574219 464.488281 530.980469 462.261719 L 530.980469 428.5625 L 530.773438 426.957031 C 522.226562 392.765625 491.664062 368.886719 456.414062 368.886719 L 393.859375 368.886719 C 362.078125 368.886719 333.226562 388.882812 322.0625 418.644531 L 318.796875 427.371094 L 318.796875 462.261719 C 316.621094 461.921875 314.421875 461.714844 312.167969 461.714844 C 293.699219 461.714844 277.769531 472.59375 270.285156 488.238281 L 212.707031 488.238281 L 212.707031 481.195312 C 212.707031 477.128906 213.277344 473.164062 214.285156 469.382812 C 219.648438 472.984375 225.96875 474.976562 232.597656 474.976562 C 250.886719 474.976562 265.753906 460.109375 265.753906 441.824219 C 265.753906 439.027344 265.339844 436.230469 264.613281 433.535156 Z M 590.660156 514.761719 L 570.222656 514.761719 C 570.558594 512.585938 570.765625 510.386719 570.765625 508.132812 C 570.765625 505.878906 570.558594 503.675781 570.222656 501.5 L 597.289062 501.5 L 597.289062 508.132812 C 597.289062 511.785156 594.3125 514.761719 590.660156 514.761719 Z M 566.234375 528.023438 L 590.660156 528.023438 C 601.640625 528.023438 610.550781 519.113281 610.550781 508.132812 L 610.550781 470.316406 C 610.550781 449.800781 597.082031 432.058594 578.097656 426.050781 L 587.707031 403.621094 L 601.820312 408.332031 L 606.019531 395.746094 L 566.234375 382.484375 L 562.039062 395.074219 L 575.09375 399.425781 L 564.730469 423.617188 L 556.105469 422.527344 C 542.199219 375.101562 498.761719 342.363281 448.980469 342.363281 L 399.015625 342.363281 C 352.210938 342.363281 310.042969 371.917969 294.0625 415.871094 L 250.679688 422.113281 C 221.460938 426.285156 199.445312 451.691406 199.445312 481.195312 L 199.445312 508.132812 C 199.445312 519.113281 208.355469 528.023438 219.335938 528.023438 L 270.285156 528.023438 C 272.667969 532.996094 275.855469 537.476562 279.738281 541.285156 L 199.445312 541.285156 L 199.445312 571.902344 L 222.808594 583.609375 C 227.574219 608.007812 237.027344 630.824219 250.964844 651.496094 L 242.675781 676.308594 L 276.605469 710.238281 L 301.417969 701.949219 C 322.089844 715.886719 344.90625 725.339844 369.304688 730.105469 L 381.011719 753.46875 L 428.984375 753.46875 L 440.691406 730.105469 C 465.089844 725.339844 487.910156 715.886719 508.578125 701.949219 L 533.390625 710.238281 L 567.296875 676.308594 L 559.035156 651.496094 C 572.992188 630.824219 582.421875 608.007812 587.160156 583.609375 L 610.550781 571.902344 L 610.550781 541.285156 L 556.78125 541.285156 C 560.664062 537.476562 563.851562 532.996094 566.234375 528.023438 " fill-opacity="1" fill-rule="nonzero"/></g><g fill="#ffffff" fill-opacity="1"><g transform="translate(40.332, 291.800817)"><g><path d="M 18.328125 -60.953125 L 18.328125 0 L 4.4375 0 L 4.4375 -60.953125 Z M 18.328125 -60.953125 "/></g></g></g><g fill="#ffffff" fill-opacity="1"><g transform="translate(63.081072, 291.800817)"><g><path d="M 4.4375 0 L 4.4375 -37.890625 L 17.515625 -37.890625 L 17.515625 -33.90625 L 17.65625 -33.90625 C 21.050781 -37.300781 24.671875 -39 28.515625 -39 C 30.390625 -39 32.25 -38.753906 34.09375 -38.265625 C 35.9375 -37.773438 37.707031 -37.007812 39.40625 -35.96875 C 41.113281 -34.9375 42.492188 -33.472656 43.546875 -31.578125 C 44.609375 -29.679688 45.140625 -27.476562 45.140625 -24.96875 L 45.140625 0 L 32.0625 0 L 32.0625 -21.421875 C 32.0625 -23.390625 31.429688 -25.113281 30.171875 -26.59375 C 28.921875 -28.070312 27.285156 -28.8125 25.265625 -28.8125 C 23.296875 -28.8125 21.507812 -28.046875 19.90625 -26.515625 C 18.3125 -24.992188 17.515625 -23.296875 17.515625 -21.421875 L 17.515625 0 Z M 4.4375 0 "/></g></g></g><g fill="#ffffff" fill-opacity="1"><g transform="translate(111.902926, 291.800817)"><g><path d="M 20.90625 -39 C 23.070312 -39 25.210938 -38.753906 27.328125 -38.265625 C 29.453125 -37.773438 31.03125 -37.285156 32.0625 -36.796875 L 33.609375 -36.046875 L 29.328125 -27.484375 C 26.367188 -29.054688 23.5625 -29.84375 20.90625 -29.84375 C 19.425781 -29.84375 18.378906 -29.679688 17.765625 -29.359375 C 17.148438 -29.046875 16.84375 -28.445312 16.84375 -27.5625 C 16.84375 -27.363281 16.863281 -27.164062 16.90625 -26.96875 C 16.957031 -26.769531 17.054688 -26.582031 17.203125 -26.40625 C 17.359375 -26.238281 17.492188 -26.09375 17.609375 -25.96875 C 17.734375 -25.84375 17.941406 -25.707031 18.234375 -25.5625 C 18.535156 -25.414062 18.769531 -25.304688 18.9375 -25.234375 C 19.113281 -25.160156 19.398438 -25.046875 19.796875 -24.890625 C 20.191406 -24.742188 20.488281 -24.632812 20.6875 -24.5625 C 20.882812 -24.488281 21.21875 -24.378906 21.6875 -24.234375 C 22.15625 -24.085938 22.507812 -23.988281 22.75 -23.9375 C 24.28125 -23.488281 25.609375 -22.992188 26.734375 -22.453125 C 27.867188 -21.910156 29.0625 -21.171875 30.3125 -20.234375 C 31.570312 -19.304688 32.546875 -18.125 33.234375 -16.6875 C 33.929688 -15.257812 34.28125 -13.632812 34.28125 -11.8125 C 34.28125 -3.195312 28.296875 1.109375 16.328125 1.109375 C 13.617188 1.109375 11.046875 0.691406 8.609375 -0.140625 C 6.171875 -0.984375 4.410156 -1.820312 3.328125 -2.65625 L 1.703125 -3.984375 L 7.015625 -12.921875 C 7.410156 -12.578125 7.925781 -12.171875 8.5625 -11.703125 C 9.207031 -11.234375 10.363281 -10.59375 12.03125 -9.78125 C 13.707031 -8.96875 15.164062 -8.5625 16.40625 -8.5625 C 19.113281 -8.5625 20.46875 -9.472656 20.46875 -11.296875 C 20.46875 -12.140625 20.117188 -12.796875 19.421875 -13.265625 C 18.734375 -13.734375 17.5625 -14.257812 15.90625 -14.84375 C 14.257812 -15.4375 12.972656 -15.976562 12.046875 -16.46875 C 9.679688 -17.707031 7.804688 -19.097656 6.421875 -20.640625 C 5.046875 -22.191406 4.359375 -24.25 4.359375 -26.8125 C 4.359375 -30.65625 5.847656 -33.644531 8.828125 -35.78125 C 11.804688 -37.925781 15.832031 -39 20.90625 -39 Z M 20.90625 -39 "/></g></g></g><g fill="#ffffff" fill-opacity="1"><g transform="translate(148.242344, 291.800817)"><g><path d="M 6.65625 -37.890625 L 6.65625 -52.015625 L 19.71875 -52.015625 L 19.71875 -37.890625 L 27.703125 -37.890625 L 27.703125 -27.921875 L 19.71875 -27.921875 L 19.71875 -15.890625 C 19.71875 -12.390625 20.703125 -10.640625 22.671875 -10.640625 C 23.171875 -10.640625 23.691406 -10.738281 24.234375 -10.9375 C 24.773438 -11.132812 25.191406 -11.332031 25.484375 -11.53125 L 25.9375 -11.8125 L 29.1875 -1.25 C 26.375 0.320312 23.171875 1.109375 19.578125 1.109375 C 17.117188 1.109375 15 0.675781 13.21875 -0.1875 C 11.445312 -1.050781 10.101562 -2.207031 9.1875 -3.65625 C 8.28125 -5.113281 7.628906 -6.640625 7.234375 -8.234375 C 6.847656 -9.835938 6.65625 -11.550781 6.65625 -13.375 L 6.65625 -27.921875 L 1.1875 -27.921875 L 1.1875 -37.890625 Z M 6.65625 -37.890625 "/></g></g></g><g fill="#ffffff" fill-opacity="1"><g transform="translate(177.417279, 291.800817)"><g><path d="M 7.015625 -4.6875 C 3.472656 -8.550781 1.703125 -13.289062 1.703125 -18.90625 C 1.703125 -24.519531 3.472656 -29.269531 7.015625 -33.15625 C 10.566406 -37.050781 15.070312 -39 20.53125 -39 C 25.5625 -39 29.703125 -37.425781 32.953125 -34.28125 L 32.953125 -37.890625 L 46.03125 -37.890625 L 46.03125 0 L 33.09375 0 L 33.09375 -4.28125 L 32.953125 -4.28125 C 29.703125 -0.6875 25.5625 1.109375 20.53125 1.109375 C 15.070312 1.109375 10.566406 -0.820312 7.015625 -4.6875 Z M 18.140625 -25.328125 C 16.441406 -23.660156 15.59375 -21.519531 15.59375 -18.90625 C 15.59375 -16.300781 16.40625 -14.171875 18.03125 -12.515625 C 19.65625 -10.867188 21.796875 -10.046875 24.453125 -10.046875 C 27.015625 -10.046875 29.117188 -10.882812 30.765625 -12.5625 C 32.421875 -14.238281 33.25 -16.351562 33.25 -18.90625 C 33.25 -21.519531 32.394531 -23.660156 30.6875 -25.328125 C 28.988281 -27.003906 26.910156 -27.84375 24.453125 -27.84375 C 21.941406 -27.84375 19.835938 -27.003906 18.140625 -25.328125 Z M 18.140625 -25.328125 "/></g></g></g><g fill="#ffffff" fill-opacity="1"><g transform="translate(227.864075, 291.800817)"><g><path d="M 4.4375 0 L 4.4375 -63.53125 L 17.515625 -63.53125 L 17.515625 0 Z M 4.4375 0 "/></g></g></g><g fill="#ffffff" fill-opacity="1"><g transform="translate(249.800669, 291.800817)"><g><path d="M 7.015625 -4.6875 C 3.472656 -8.550781 1.703125 -13.289062 1.703125 -18.90625 C 1.703125 -24.519531 3.472656 -29.269531 7.015625 -33.15625 C 10.566406 -37.050781 15.070312 -39 20.53125 -39 C 25.5625 -39 29.703125 -37.425781 32.953125 -34.28125 L 32.953125 -37.890625 L 46.03125 -37.890625 L 46.03125 0 L 33.09375 0 L 33.09375 -4.28125 L 32.953125 -4.28125 C 29.703125 -0.6875 25.5625 1.109375 20.53125 1.109375 C 15.070312 1.109375 10.566406 -0.820312 7.015625 -4.6875 Z M 18.140625 -25.328125 C 16.441406 -23.660156 15.59375 -21.519531 15.59375 -18.90625 C 15.59375 -16.300781 16.40625 -14.171875 18.03125 -12.515625 C 19.65625 -10.867188 21.796875 -10.046875 24.453125 -10.046875 C 27.015625 -10.046875 29.117188 -10.882812 30.765625 -12.5625 C 32.421875 -14.238281 33.25 -16.351562 33.25 -18.90625 C 33.25 -21.519531 32.394531 -23.660156 30.6875 -25.328125 C 28.988281 -27.003906 26.910156 -27.84375 24.453125 -27.84375 C 21.941406 -27.84375 19.835938 -27.003906 18.140625 -25.328125 Z M 18.140625 -25.328125 "/></g></g></g><g fill="#ffffff" fill-opacity="1"><g transform="translate(300.247465, 291.800817)"><g><path d="M 24.59375 -28.296875 C 22.132812 -28.296875 20.019531 -27.382812 18.25 -25.5625 C 16.476562 -23.738281 15.59375 -21.546875 15.59375 -18.984375 C 15.59375 -16.378906 16.476562 -14.164062 18.25 -12.34375 C 20.019531 -10.519531 22.132812 -9.609375 24.59375 -9.609375 C 25.78125 -9.609375 26.898438 -9.753906 27.953125 -10.046875 C 29.015625 -10.335938 29.789062 -10.632812 30.28125 -10.9375 L 30.953125 -11.375 L 35.390625 -2.296875 C 35.046875 -2.046875 34.5625 -1.734375 33.9375 -1.359375 C 33.320312 -0.992188 31.921875 -0.492188 29.734375 0.140625 C 27.546875 0.785156 25.191406 1.109375 22.671875 1.109375 C 17.109375 1.109375 12.222656 -0.847656 8.015625 -4.765625 C 3.804688 -8.679688 1.703125 -13.375 1.703125 -18.84375 C 1.703125 -24.351562 3.804688 -29.085938 8.015625 -33.046875 C 12.222656 -37.015625 17.109375 -39 22.671875 -39 C 25.191406 -39 27.507812 -38.703125 29.625 -38.109375 C 31.738281 -37.523438 33.238281 -36.9375 34.125 -36.34375 L 35.390625 -35.453125 L 30.953125 -26.515625 C 29.328125 -27.703125 27.207031 -28.296875 24.59375 -28.296875 Z M 24.59375 -28.296875 "/></g></g></g><g fill="#ffffff" fill-opacity="1"><g transform="translate(336.513041, 291.800817)"><g><path d="M 5.6875 -59.015625 C 7.21875 -60.546875 9.039062 -61.3125 11.15625 -61.3125 C 13.269531 -61.3125 15.085938 -60.546875 16.609375 -59.015625 C 18.140625 -57.492188 18.90625 -55.671875 18.90625 -53.546875 C 18.90625 -51.429688 18.140625 -49.609375 16.609375 -48.078125 C 15.085938 -46.554688 13.269531 -45.796875 11.15625 -45.796875 C 9.039062 -45.796875 7.21875 -46.554688 5.6875 -48.078125 C 4.15625 -49.609375 3.390625 -51.429688 3.390625 -53.546875 C 3.390625 -55.671875 4.15625 -57.492188 5.6875 -59.015625 Z M 4.4375 -37.890625 L 4.4375 0 L 17.515625 0 L 17.515625 -37.890625 Z M 4.4375 -37.890625 "/></g></g></g><g fill="#ffffff" fill-opacity="1"><g transform="translate(358.818921, 291.800817)"><g><path d="M 17.140625 -49.046875 L 32.140625 -62.0625 L 38.859375 -53.5625 L 21.28125 -43.359375 Z M 8.265625 -33.34375 C 3.890625 -29.582031 1.703125 -24.769531 1.703125 -18.90625 C 1.703125 -13.050781 3.804688 -8.25 8.015625 -4.5 C 12.222656 -0.757812 17.726562 1.109375 24.53125 1.109375 C 31.082031 1.109375 36.484375 -0.769531 40.734375 -4.53125 C 44.992188 -8.300781 47.125 -13.09375 47.125 -18.90625 C 47.125 -24.71875 44.945312 -29.519531 40.59375 -33.3125 C 36.238281 -37.101562 30.882812 -39 24.53125 -39 C 18.070312 -39 12.648438 -37.113281 8.265625 -33.34375 Z M 18.03125 -12.515625 C 16.40625 -14.171875 15.59375 -16.300781 15.59375 -18.90625 C 15.59375 -21.519531 16.441406 -23.660156 18.140625 -25.328125 C 19.835938 -27.003906 21.941406 -27.84375 24.453125 -27.84375 C 26.910156 -27.84375 28.988281 -27.003906 30.6875 -25.328125 C 32.394531 -23.660156 33.25 -21.519531 33.25 -18.90625 C 33.25 -16.351562 32.421875 -14.238281 30.765625 -12.5625 C 29.117188 -10.882812 27.015625 -10.046875 24.453125 -10.046875 C 21.796875 -10.046875 19.65625 -10.867188 18.03125 -12.515625 Z M 18.03125 -12.515625 "/></g></g></g><g fill="#ffffff" fill-opacity="1"><g transform="translate(407.640775, 291.800817)"><g><path d="M 4.4375 0 L 4.4375 -37.890625 L 17.515625 -37.890625 L 17.515625 -33.90625 L 17.65625 -33.90625 C 21.050781 -37.300781 24.671875 -39 28.515625 -39 C 30.390625 -39 32.25 -38.753906 34.09375 -38.265625 C 35.9375 -37.773438 37.707031 -37.007812 39.40625 -35.96875 C 41.113281 -34.9375 42.492188 -33.472656 43.546875 -31.578125 C 44.609375 -29.679688 45.140625 -27.476562 45.140625 -24.96875 L 45.140625 0 L 32.0625 0 L 32.0625 -21.421875 C 32.0625 -23.390625 31.429688 -25.113281 30.171875 -26.59375 C 28.921875 -28.070312 27.285156 -28.8125 25.265625 -28.8125 C 23.296875 -28.8125 21.507812 -28.046875 19.90625 -26.515625 C 18.3125 -24.992188 17.515625 -23.296875 17.515625 -21.421875 L 17.515625 0 Z M 4.4375 0 "/></g></g></g><g fill="#ffffff" fill-opacity="1"><g transform="translate(456.462629, 291.800817)"><g/></g></g><g fill="#ffffff" fill-opacity="1"><g transform="translate(476.62655, 291.800817)"><g><path d="M 7.015625 -4.6875 C 3.472656 -8.550781 1.703125 -13.289062 1.703125 -18.90625 C 1.703125 -24.519531 3.472656 -29.269531 7.015625 -33.15625 C 10.566406 -37.050781 15.070312 -39 20.53125 -39 C 25.5625 -39 29.703125 -37.425781 32.953125 -34.28125 L 32.953125 -63.53125 L 46.03125 -63.53125 L 46.03125 0 L 33.09375 0 L 33.09375 -4.28125 L 32.953125 -4.28125 C 29.703125 -0.6875 25.5625 1.109375 20.53125 1.109375 C 15.070312 1.109375 10.566406 -0.820312 7.015625 -4.6875 Z M 18.140625 -25.328125 C 16.441406 -23.660156 15.59375 -21.519531 15.59375 -18.90625 C 15.59375 -16.300781 16.40625 -14.171875 18.03125 -12.515625 C 19.65625 -10.867188 21.796875 -10.046875 24.453125 -10.046875 C 27.015625 -10.046875 29.117188 -10.882812 30.765625 -12.5625 C 32.421875 -14.238281 33.25 -16.351562 33.25 -18.90625 C 33.25 -21.519531 32.394531 -23.660156 30.6875 -25.328125 C 28.988281 -27.003906 26.910156 -27.84375 24.453125 -27.84375 C 21.941406 -27.84375 19.835938 -27.003906 18.140625 -25.328125 Z M 18.140625 -25.328125 "/></g></g></g><g fill="#ffffff" fill-opacity="1"><g transform="translate(527.07333, 291.800817)"><g><path d="M 42.78125 -17.140625 L 15.296875 -17.140625 C 15.296875 -14.484375 16.15625 -12.515625 17.875 -11.234375 C 19.601562 -9.953125 21.476562 -9.3125 23.5 -9.3125 C 25.613281 -9.3125 27.285156 -9.59375 28.515625 -10.15625 C 29.742188 -10.71875 31.148438 -11.835938 32.734375 -13.515625 L 42.1875 -8.796875 C 38.238281 -2.191406 31.6875 1.109375 22.53125 1.109375 C 16.820312 1.109375 11.921875 -0.847656 7.828125 -4.765625 C 3.742188 -8.679688 1.703125 -13.394531 1.703125 -18.90625 C 1.703125 -24.425781 3.742188 -29.15625 7.828125 -33.09375 C 11.921875 -37.03125 16.820312 -39 22.53125 -39 C 28.539062 -39 33.425781 -37.265625 37.1875 -33.796875 C 40.957031 -30.328125 42.84375 -25.363281 42.84375 -18.90625 C 42.84375 -18.019531 42.820312 -17.429688 42.78125 -17.140625 Z M 15.65625 -24.375 L 30.0625 -24.375 C 29.769531 -26.34375 28.992188 -27.859375 27.734375 -28.921875 C 26.484375 -29.984375 24.875 -30.515625 22.90625 -30.515625 C 20.738281 -30.515625 19.015625 -29.945312 17.734375 -28.8125 C 16.453125 -27.675781 15.757812 -26.195312 15.65625 -24.375 Z M 15.65625 -24.375 "/></g></g></g><g fill="#ffffff" fill-opacity="1"><g transform="translate(571.611265, 291.800817)"><g/></g></g><g fill="#ffffff" fill-opacity="1"><g transform="translate(591.775186, 291.800817)"><g><path d="M 59.546875 -34.125 L 59.546875 -20.90625 C 57.960938 -13.664062 54.507812 -8.1875 49.1875 -4.46875 C 43.875 -0.75 37.941406 1.109375 31.390625 1.109375 C 23.171875 1.109375 16.164062 -1.96875 10.375 -8.125 C 4.59375 -14.28125 1.703125 -21.71875 1.703125 -30.4375 C 1.703125 -39.300781 4.53125 -46.785156 10.1875 -52.890625 C 15.851562 -59.003906 22.921875 -62.0625 31.390625 -62.0625 C 41.296875 -62.0625 49.128906 -58.585938 54.890625 -51.640625 L 45.796875 -41.671875 C 42.546875 -46.890625 38.015625 -49.5 32.203125 -49.5 C 27.921875 -49.5 24.265625 -47.640625 21.234375 -43.921875 C 18.210938 -40.203125 16.703125 -35.707031 16.703125 -30.4375 C 16.703125 -25.257812 18.210938 -20.835938 21.234375 -17.171875 C 24.265625 -13.503906 27.921875 -11.671875 32.203125 -11.671875 C 35.753906 -11.671875 38.847656 -12.738281 41.484375 -14.875 C 44.117188 -17.019531 45.4375 -19.867188 45.4375 -23.421875 L 31.390625 -23.421875 L 31.390625 -34.125 Z M 59.546875 -34.125 "/></g></g></g><g fill="#ffffff" fill-opacity="1"><g transform="translate(653.005587, 291.800817)"><g><path d="M 18.328125 -37.828125 L 18.328125 0 L 4.4375 0 L 4.4375 -60.953125 L 18.328125 -60.953125 L 42.546875 -23.125 L 42.703125 -23.125 L 42.703125 -60.953125 L 56.59375 -60.953125 L 56.59375 0 L 42.703125 0 L 18.46875 -37.828125 Z M 18.328125 -37.828125 "/></g></g></g><g fill="#ffffff" fill-opacity="1"><g transform="translate(714.014449, 291.800817)"><g><path d="M 36.859375 -12.5625 C 38.984375 -12.5625 41.039062 -12.878906 43.03125 -13.515625 C 45.03125 -14.160156 46.492188 -14.773438 47.421875 -15.359375 L 48.828125 -16.328125 L 54.734375 -4.5 C 54.546875 -4.351562 54.273438 -4.15625 53.921875 -3.90625 C 53.578125 -3.664062 52.773438 -3.210938 51.515625 -2.546875 C 50.265625 -1.878906 48.925781 -1.300781 47.5 -0.8125 C 46.070312 -0.320312 44.203125 0.117188 41.890625 0.515625 C 39.578125 0.910156 37.1875 1.109375 34.71875 1.109375 C 29.050781 1.109375 23.679688 -0.28125 18.609375 -3.0625 C 13.535156 -5.84375 9.445312 -9.671875 6.34375 -14.546875 C 3.25 -19.421875 1.703125 -24.691406 1.703125 -30.359375 C 1.703125 -34.648438 2.613281 -38.765625 4.4375 -42.703125 C 6.257812 -46.640625 8.679688 -50.007812 11.703125 -52.8125 C 14.734375 -55.625 18.269531 -57.867188 22.3125 -59.546875 C 26.351562 -61.222656 30.488281 -62.0625 34.71875 -62.0625 C 38.65625 -62.0625 42.285156 -61.59375 45.609375 -60.65625 C 48.941406 -59.71875 51.296875 -58.78125 52.671875 -57.84375 L 54.734375 -56.4375 L 48.828125 -44.625 C 48.484375 -44.914062 47.96875 -45.269531 47.28125 -45.6875 C 46.59375 -46.101562 45.210938 -46.65625 43.140625 -47.34375 C 41.078125 -48.039062 38.984375 -48.390625 36.859375 -48.390625 C 33.515625 -48.390625 30.507812 -47.847656 27.84375 -46.765625 C 25.1875 -45.679688 23.082031 -44.25 21.53125 -42.46875 C 19.976562 -40.695312 18.796875 -38.789062 17.984375 -36.75 C 17.171875 -34.707031 16.765625 -32.628906 16.765625 -30.515625 C 16.765625 -25.878906 18.5 -21.726562 21.96875 -18.0625 C 25.445312 -14.394531 30.410156 -12.5625 36.859375 -12.5625 Z M 36.859375 -12.5625 "/></g></g></g></svg>