<svg xmlns="http://www.w3.org/2000/svg" xmlns:xlink="http://www.w3.org/1999/xlink" width="1080" zoomAndPan="magnify" viewBox="0 0 810 809.999993" height="1080" preserveAspectRatio="xMidYMid meet" version="1.0"><defs><g/></defs><g fill="#d50401" fill-opacity="1"><g transform="translate(51.654743, 396.876272)"><g><path d="M 7.78125 -72.328125 L 70.328125 -72.328125 L 70.328125 -54.984375 L 31.015625 -54.984375 L 31.015625 -45 L 64.65625 -45 L 64.65625 -28.390625 L 31.015625 -28.390625 L 31.015625 -17.34375 L 71.0625 -17.34375 L 71.0625 0 L 7.78125 0 Z M 7.78125 -72.328125 "/></g></g></g><g fill="#d50401" fill-opacity="1"><g transform="translate(127.556241, 396.876272)"><g><path d="M 55.921875 -72.328125 C 59.566406 -72.328125 62.910156 -71.570312 65.953125 -70.0625 C 69.003906 -68.5625 71.425781 -66.441406 73.21875 -63.703125 C 75.007812 -60.972656 75.90625 -57.925781 75.90625 -54.5625 C 75.90625 -45.65625 71.875 -40.046875 63.8125 -37.734375 L 63.8125 -37.3125 C 72.988281 -35.21875 77.578125 -29.191406 77.578125 -19.234375 C 77.578125 -15.453125 76.648438 -12.101562 74.796875 -9.1875 C 72.941406 -6.28125 70.398438 -4.019531 67.171875 -2.40625 C 63.953125 -0.800781 60.414062 0 56.5625 0 L 7.78125 0 L 7.78125 -72.328125 Z M 31.015625 -44.15625 L 46.984375 -44.15625 C 48.523438 -44.15625 49.804688 -44.695312 50.828125 -45.78125 C 51.847656 -46.863281 52.359375 -48.210938 52.359375 -49.828125 L 52.359375 -50.875 C 52.359375 -52.414062 51.832031 -53.726562 50.78125 -54.8125 C 49.726562 -55.90625 48.460938 -56.453125 46.984375 -56.453125 L 31.015625 -56.453125 Z M 31.015625 -16.8125 L 48.671875 -16.8125 C 50.210938 -16.8125 51.488281 -17.351562 52.5 -18.4375 C 53.519531 -19.53125 54.03125 -20.882812 54.03125 -22.5 L 54.03125 -23.546875 C 54.03125 -25.160156 53.519531 -26.507812 52.5 -27.59375 C 51.488281 -28.675781 50.210938 -29.21875 48.671875 -29.21875 L 31.015625 -29.21875 Z M 31.015625 -16.8125 "/></g></g></g><g fill="#d50401" fill-opacity="1"><g transform="translate(209.344817, 396.876272)"><g><path d="M 7.78125 -72.328125 L 70.328125 -72.328125 L 70.328125 -54.984375 L 31.015625 -54.984375 L 31.015625 -45 L 64.65625 -45 L 64.65625 -28.390625 L 31.015625 -28.390625 L 31.015625 -17.34375 L 71.0625 -17.34375 L 71.0625 0 L 7.78125 0 Z M 7.78125 -72.328125 "/></g></g></g><g fill="#d50401" fill-opacity="1"><g transform="translate(285.246315, 396.876272)"><g><path d="M 76.421875 -50.140625 C 76.421875 -45.722656 75.226562 -41.726562 72.84375 -38.15625 C 70.46875 -34.582031 67 -31.957031 62.4375 -30.28125 L 78.53125 0 L 52.453125 0 L 39.625 -26.390625 L 31.015625 -26.390625 L 31.015625 0 L 7.78125 0 L 7.78125 -72.328125 L 52.03125 -72.328125 C 57.21875 -72.328125 61.648438 -71.328125 65.328125 -69.328125 C 69.015625 -67.328125 71.785156 -64.628906 73.640625 -61.234375 C 75.492188 -57.835938 76.421875 -54.140625 76.421875 -50.140625 Z M 52.765625 -49.203125 C 52.765625 -51.085938 52.132812 -52.660156 50.875 -53.921875 C 49.613281 -55.191406 48.070312 -55.828125 46.25 -55.828125 L 31.015625 -55.828125 L 31.015625 -42.46875 L 46.25 -42.46875 C 48.070312 -42.46875 49.613281 -43.113281 50.875 -44.40625 C 52.132812 -45.707031 52.765625 -47.304688 52.765625 -49.203125 Z M 52.765625 -49.203125 "/></g></g></g><g fill="#d50401" fill-opacity="1"><g transform="translate(367.034891, 396.876272)"><g/></g></g><g fill="#d50401" fill-opacity="1"><g transform="translate(402.042103, 396.876272)"><g><path d="M 39.109375 -72.328125 C 64.410156 -72.328125 77.0625 -60.269531 77.0625 -36.15625 C 77.0625 -12.050781 64.410156 0 39.109375 0 L 7.78125 0 L 7.78125 -72.328125 Z M 31.015625 -17.34375 L 38.6875 -17.34375 C 48.425781 -17.34375 53.296875 -22.566406 53.296875 -33.015625 L 53.296875 -39.3125 C 53.296875 -49.757812 48.425781 -54.984375 38.6875 -54.984375 L 31.015625 -54.984375 Z M 31.015625 -17.34375 "/></g></g></g><g fill="#d50401" fill-opacity="1"><g transform="translate(483.830679, 396.876272)"><g><path d="M 7.78125 -72.328125 L 70.328125 -72.328125 L 70.328125 -54.984375 L 31.015625 -54.984375 L 31.015625 -45 L 64.65625 -45 L 64.65625 -28.390625 L 31.015625 -28.390625 L 31.015625 -17.34375 L 71.0625 -17.34375 L 71.0625 0 L 7.78125 0 Z M 7.78125 -72.328125 "/></g></g></g><g fill="#d50401" fill-opacity="1"><g transform="translate(559.732177, 396.876272)"><g><path d="M 27.4375 0 L 1.78125 -72.328125 L 26.59375 -72.328125 L 41.109375 -23.96875 L 41.53125 -23.96875 L 56.140625 -72.328125 L 79.890625 -72.328125 L 54.34375 0 Z M 27.4375 0 "/></g></g></g><g fill="#d50401" fill-opacity="1"><g transform="translate(641.520754, 396.876272)"><g><path d="M 8.828125 0 L 8.828125 -72.328125 L 32.0625 -72.328125 L 32.0625 0 Z M 8.828125 0 "/></g></g></g><g fill="#d50401" fill-opacity="1"><g transform="translate(682.415041, 396.876272)"><g><path d="M 38.15625 -73.59375 C 47.40625 -73.59375 55.007812 -71.71875 60.96875 -67.96875 C 66.925781 -64.21875 69.976562 -58.660156 70.125 -51.296875 L 70.125 -50.046875 L 48.359375 -50.046875 L 48.359375 -50.453125 C 48.359375 -52.554688 47.585938 -54.304688 46.046875 -55.703125 C 44.503906 -57.109375 42.15625 -57.8125 39 -57.8125 C 35.914062 -57.8125 33.550781 -57.351562 31.90625 -56.4375 C 30.257812 -55.53125 29.4375 -54.414062 29.4375 -53.09375 C 29.4375 -51.195312 30.554688 -49.789062 32.796875 -48.875 C 35.035156 -47.96875 38.644531 -47.023438 43.625 -46.046875 C 49.445312 -44.847656 54.226562 -43.601562 57.96875 -42.3125 C 61.71875 -41.019531 64.992188 -38.898438 67.796875 -35.953125 C 70.609375 -33.003906 72.046875 -29.007812 72.109375 -23.96875 C 72.109375 -15.414062 69.21875 -9.070312 63.4375 -4.9375 C 57.65625 -0.800781 49.929688 1.265625 40.265625 1.265625 C 28.984375 1.265625 20.203125 -0.625 13.921875 -4.40625 C 7.648438 -8.195312 4.515625 -14.894531 4.515625 -24.5 L 26.484375 -24.5 C 26.484375 -20.851562 27.429688 -18.414062 29.328125 -17.1875 C 31.222656 -15.957031 34.164062 -15.34375 38.15625 -15.34375 C 41.101562 -15.34375 43.539062 -15.65625 45.46875 -16.28125 C 47.394531 -16.914062 48.359375 -18.21875 48.359375 -20.1875 C 48.359375 -21.9375 47.285156 -23.25 45.140625 -24.125 C 43.003906 -25 39.519531 -25.925781 34.6875 -26.90625 C 28.800781 -28.164062 23.929688 -29.476562 20.078125 -30.84375 C 16.222656 -32.21875 12.859375 -34.476562 9.984375 -37.625 C 7.109375 -40.78125 5.671875 -45.054688 5.671875 -50.453125 C 5.671875 -58.378906 8.738281 -64.21875 14.875 -67.96875 C 21.007812 -71.71875 28.769531 -73.59375 38.15625 -73.59375 Z M 38.15625 -73.59375 "/></g></g></g><g fill="#2f4ffe" fill-opacity="1"><g transform="translate(473.844652, 505.634471)"><g><path d="M 48.890625 -81.484375 C 56.578125 -81.484375 63.484375 -80.316406 69.609375 -77.984375 C 75.742188 -75.660156 80.613281 -72.226562 84.21875 -67.6875 C 87.820312 -63.144531 89.625 -57.617188 89.625 -51.109375 L 65.078125 -51.109375 C 65.078125 -54.441406 63.597656 -57.132812 60.640625 -59.1875 C 57.691406 -61.25 54.125 -62.28125 49.9375 -62.28125 C 43.882812 -62.28125 39.304688 -60.664062 36.203125 -57.4375 C 33.097656 -54.21875 31.546875 -49.660156 31.546875 -43.765625 L 31.546875 -36.3125 C 31.546875 -30.414062 33.097656 -25.859375 36.203125 -22.640625 C 39.304688 -19.421875 43.882812 -17.8125 49.9375 -17.8125 C 54.125 -17.8125 57.691406 -18.800781 60.640625 -20.78125 C 63.597656 -22.757812 65.078125 -25.300781 65.078125 -28.40625 L 46.90625 -28.40625 L 46.90625 -44.703125 L 89.625 -44.703125 L 89.625 0 L 76.359375 0 L 73.796875 -7.921875 C 66.503906 -1.710938 56.960938 1.390625 45.171875 1.390625 C 31.898438 1.390625 21.925781 -2.078125 15.25 -9.015625 C 8.570312 -15.960938 5.234375 -26.304688 5.234375 -40.046875 C 5.234375 -53.628906 9.015625 -63.929688 16.578125 -70.953125 C 24.148438 -77.972656 34.921875 -81.484375 48.890625 -81.484375 Z M 48.890625 -81.484375 "/></g></g></g><g fill="#2f4ffe" fill-opacity="1"><g transform="translate(570.804931, 505.634471)"><g><path d="M 65.890625 0 L 32.25 -38.875 L 32.25 0 L 8.609375 0 L 8.609375 -80.09375 L 31.078125 -80.09375 L 64.71875 -40.625 L 64.71875 -80.09375 L 88.359375 -80.09375 L 88.359375 0 Z M 65.890625 0 "/></g></g></g><g fill="#2f4ffe" fill-opacity="1"><g transform="translate(667.76521, 505.634471)"><g><path d="M 46.796875 -81.484375 C 58.671875 -81.484375 68.0625 -78.515625 74.96875 -72.578125 C 81.875 -66.640625 85.328125 -58.160156 85.328125 -47.140625 L 60.765625 -47.140625 C 60.765625 -51.796875 59.539062 -55.484375 57.09375 -58.203125 C 54.65625 -60.921875 51.179688 -62.28125 46.671875 -62.28125 C 41.472656 -62.28125 37.648438 -60.648438 35.203125 -57.390625 C 32.765625 -54.128906 31.546875 -49.585938 31.546875 -43.765625 L 31.546875 -36.3125 C 31.546875 -30.570312 32.765625 -26.050781 35.203125 -22.75 C 37.648438 -19.457031 41.398438 -17.8125 46.453125 -17.8125 C 51.410156 -17.8125 55.171875 -19.09375 57.734375 -21.65625 C 60.296875 -24.21875 61.578125 -27.828125 61.578125 -32.484375 L 85.328125 -32.484375 C 85.328125 -21.535156 81.96875 -13.148438 75.25 -7.328125 C 68.539062 -1.515625 59.054688 1.390625 46.796875 1.390625 C 33.140625 1.390625 22.796875 -2.097656 15.765625 -9.078125 C 8.742188 -16.066406 5.234375 -26.390625 5.234375 -40.046875 C 5.234375 -53.703125 8.742188 -64.019531 15.765625 -71 C 22.796875 -77.988281 33.140625 -81.484375 46.796875 -81.484375 Z M 46.796875 -81.484375 "/></g></g></g><path stroke-linecap="butt" transform="matrix(0.872278, 0.000000000000000225, -0.000000000000000225, 0.872278, 60.377523, 428.414326)" fill="none" stroke-linejoin="miter" d="M 0.00158595 8.499352 L 441.285003 8.499352 " stroke="#2f4ffe" stroke-width="17" stroke-opacity="1" stroke-miterlimit="4"/><path stroke-linecap="butt" transform="matrix(0.872278, 0, 0, 0.872278, 60.37752, 460.552317)" fill="none" stroke-linejoin="miter" d="M 0.0015887 8.497894 L 383.96384 8.497894 " stroke="#2f4ffe" stroke-width="17" stroke-opacity="1" stroke-miterlimit="4"/><path stroke-linecap="butt" transform="matrix(0.872278, 0.000000000000000225, -0.000000000000000225, 0.872278, 60.377523, 493.406947)" fill="none" stroke-linejoin="miter" d="M 0.00158595 8.498855 L 441.285003 8.498855 " stroke="#2f4ffe" stroke-width="17" stroke-opacity="1" stroke-miterlimit="4"/></svg>