<svg xmlns="http://www.w3.org/2000/svg" xmlns:xlink="http://www.w3.org/1999/xlink" width="1080" zoomAndPan="magnify" viewBox="0 0 810 809.999993" height="1080" preserveAspectRatio="xMidYMid meet" version="1.0"><defs><g/><clipPath id="7f48ad482d"><path d="M 240.738281 460 L 566 460 L 566 786 L 240.738281 786 Z M 240.738281 460 " clip-rule="nonzero"/></clipPath></defs><rect x="-81" width="972" fill="#ffffff" y="-80.999999" height="971.999992" fill-opacity="1"/><rect x="-81" width="972" fill="#323131" y="-80.999999" height="971.999992" fill-opacity="1"/><path fill="#807c7c" d="M 333.605469 646.570312 C 333.605469 659.398438 323.214844 669.785156 310.390625 669.785156 C 297.5625 669.785156 287.171875 659.398438 287.171875 646.570312 C 287.171875 633.742188 297.5625 623.351562 310.390625 623.351562 C 323.214844 623.351562 333.605469 633.742188 333.605469 646.570312 Z M 333.605469 646.570312 " fill-opacity="1" fill-rule="nonzero"/><path fill="#807c7c" d="M 426.476562 646.570312 C 426.476562 652.988281 421.273438 658.175781 414.867188 658.175781 L 368.433594 658.175781 C 362.023438 658.175781 356.824219 652.988281 356.824219 646.570312 C 356.824219 640.148438 362.023438 634.960938 368.433594 634.960938 L 414.867188 634.960938 C 421.273438 634.960938 426.476562 640.148438 426.476562 646.570312 Z M 426.476562 646.570312 " fill-opacity="1" fill-rule="nonzero"/><g clip-path="url(#7f48ad482d)"><path fill="#807c7c" d="M 524.324219 461.933594 C 520.726562 460.238281 516.535156 460.507812 513.167969 462.640625 C 509.8125 464.765625 507.78125 468.46875 507.78125 472.441406 L 507.78125 523.308594 L 496.171875 529.113281 L 484.566406 523.308594 L 484.566406 472.441406 C 484.566406 468.46875 482.53125 464.765625 479.179688 462.640625 C 475.824219 460.507812 471.597656 460.238281 468.023438 461.933594 C 448.042969 471.324219 434.113281 487.660156 428.867188 507.265625 L 333.351562 507.265625 C 314.753906 507.265625 298.003906 518.316406 290.675781 535.40625 L 265.511719 594.144531 C 250.847656 601.957031 240.738281 617.222656 240.738281 634.960938 L 240.738281 658.175781 C 240.738281 675.289062 250.140625 690.101562 263.953125 698.15625 L 263.953125 739.4375 C 263.953125 752.242188 274.367188 762.65625 287.171875 762.65625 L 333.605469 762.65625 C 346.410156 762.65625 356.824219 752.242188 356.824219 739.4375 L 356.824219 704.613281 L 449.738281 704.613281 L 449.738281 739.4375 C 449.738281 765.046875 470.566406 785.871094 496.171875 785.871094 C 521.78125 785.871094 542.609375 765.046875 542.609375 739.4375 L 542.609375 576.582031 C 558.695312 563.21875 569.308594 538.167969 564.871094 512.804688 C 560.972656 490.457031 546.578125 472.394531 524.324219 461.933594 Z M 312.015625 544.550781 C 315.683594 536.007812 324.050781 530.484375 333.351562 530.484375 L 426.742188 530.484375 C 428.285156 549.136719 438.117188 566.863281 449.726562 576.582031 L 449.726562 588.527344 L 293.171875 588.527344 Z M 333.617188 739.4375 L 287.171875 739.4375 L 287.171875 704.613281 L 333.605469 704.613281 Z M 287.171875 681.394531 C 274.367188 681.394531 263.953125 670.980469 263.953125 658.175781 L 263.953125 634.960938 C 263.953125 622.15625 274.367188 611.742188 287.171875 611.742188 L 449.738281 611.742188 L 449.738281 681.394531 C 389.339844 681.394531 348.246094 681.394531 287.171875 681.394531 Z M 524.011719 561.617188 C 521.109375 563.8125 519.390625 567.234375 519.390625 570.882812 L 519.390625 739.4375 C 519.390625 752.242188 508.976562 762.65625 496.171875 762.65625 C 483.367188 762.65625 472.957031 752.242188 472.957031 739.4375 C 472.957031 685.96875 472.957031 695.707031 472.957031 570.882812 C 472.957031 566.355469 470.136719 562.277344 467.40625 560.921875 C 454.625 551.320312 448.460938 535.148438 450.015625 520.058594 C 451.074219 509.949219 454.996094 501.730469 461.347656 494.832031 L 461.347656 530.484375 C 461.347656 534.882812 463.832031 538.898438 467.765625 540.871094 L 490.984375 552.480469 C 494.246094 554.117188 498.101562 554.117188 501.375 552.480469 L 524.589844 540.871094 C 528.515625 538.898438 531 534.882812 531 530.484375 L 531 494.785156 C 536.769531 500.996094 540.542969 508.472656 542.003906 516.796875 C 544.707031 532.292969 539.230469 550.21875 524.011719 561.617188 Z M 524.011719 561.617188 " fill-opacity="1" fill-rule="nonzero"/></g><path fill="#807c7c" d="M 507.839844 739.4375 C 507.839844 745.847656 502.640625 751.046875 496.230469 751.046875 C 489.824219 751.046875 484.621094 745.847656 484.621094 739.4375 C 484.621094 733.03125 489.824219 727.828125 496.230469 727.828125 C 502.640625 727.828125 507.839844 733.03125 507.839844 739.4375 Z M 507.839844 739.4375 " fill-opacity="1" fill-rule="nonzero"/><g fill="#ffffff" fill-opacity="1"><g transform="translate(30.956802, 291.8008)"><g><path d="M 26.890625 -62.0625 C 30.191406 -62.0625 33.414062 -61.578125 36.5625 -60.609375 C 39.71875 -59.648438 42.0625 -58.703125 43.59375 -57.765625 L 45.796875 -56.296875 L 40.1875 -45.21875 C 39.738281 -45.507812 39.117188 -45.890625 38.328125 -46.359375 C 37.546875 -46.828125 36.070312 -47.453125 33.90625 -48.234375 C 31.738281 -49.023438 29.71875 -49.421875 27.84375 -49.421875 C 25.53125 -49.421875 23.742188 -48.925781 22.484375 -47.9375 C 21.234375 -46.957031 20.609375 -45.628906 20.609375 -43.953125 C 20.609375 -43.117188 20.90625 -42.34375 21.5 -41.625 C 22.09375 -40.914062 23.101562 -40.15625 24.53125 -39.34375 C 25.957031 -38.53125 27.210938 -37.875 28.296875 -37.375 C 29.378906 -36.882812 31.050781 -36.148438 33.3125 -35.171875 C 37.257812 -33.492188 40.625 -31.210938 43.40625 -28.328125 C 46.1875 -25.453125 47.578125 -22.191406 47.578125 -18.546875 C 47.578125 -15.046875 46.945312 -11.988281 45.6875 -9.375 C 44.4375 -6.769531 42.710938 -4.726562 40.515625 -3.25 C 38.328125 -1.769531 35.898438 -0.675781 33.234375 0.03125 C 30.578125 0.75 27.695312 1.109375 24.59375 1.109375 C 21.9375 1.109375 19.328125 0.835938 16.765625 0.296875 C 14.203125 -0.242188 12.054688 -0.921875 10.328125 -1.734375 C 8.609375 -2.546875 7.0625 -3.34375 5.6875 -4.125 C 4.3125 -4.914062 3.300781 -5.582031 2.65625 -6.125 L 1.703125 -6.9375 L 8.640625 -18.609375 C 9.234375 -18.117188 10.046875 -17.492188 11.078125 -16.734375 C 12.109375 -15.972656 13.941406 -14.953125 16.578125 -13.671875 C 19.210938 -12.390625 21.539062 -11.75 23.5625 -11.75 C 29.425781 -11.75 32.359375 -13.742188 32.359375 -17.734375 C 32.359375 -18.566406 32.144531 -19.335938 31.71875 -20.046875 C 31.300781 -20.765625 30.5625 -21.476562 29.5 -22.1875 C 28.445312 -22.90625 27.515625 -23.472656 26.703125 -23.890625 C 25.890625 -24.316406 24.5625 -24.957031 22.71875 -25.8125 C 20.875 -26.675781 19.503906 -27.332031 18.609375 -27.78125 C 14.921875 -29.601562 12.066406 -31.878906 10.046875 -34.609375 C 8.023438 -37.335938 7.015625 -40.28125 7.015625 -43.4375 C 7.015625 -48.90625 9.035156 -53.375 13.078125 -56.84375 C 17.117188 -60.320312 21.722656 -62.0625 26.890625 -62.0625 Z M 26.890625 -62.0625 "/></g></g></g><g fill="#ffffff" fill-opacity="1"><g transform="translate(80.591136, 291.8008)"><g><path d="M 42.78125 -17.140625 L 15.296875 -17.140625 C 15.296875 -14.484375 16.15625 -12.515625 17.875 -11.234375 C 19.601562 -9.953125 21.476562 -9.3125 23.5 -9.3125 C 25.613281 -9.3125 27.285156 -9.59375 28.515625 -10.15625 C 29.742188 -10.71875 31.148438 -11.835938 32.734375 -13.515625 L 42.1875 -8.796875 C 38.238281 -2.191406 31.6875 1.109375 22.53125 1.109375 C 16.820312 1.109375 11.921875 -0.847656 7.828125 -4.765625 C 3.742188 -8.679688 1.703125 -13.394531 1.703125 -18.90625 C 1.703125 -24.425781 3.742188 -29.15625 7.828125 -33.09375 C 11.921875 -37.03125 16.820312 -39 22.53125 -39 C 28.539062 -39 33.425781 -37.265625 37.1875 -33.796875 C 40.957031 -30.328125 42.84375 -25.363281 42.84375 -18.90625 C 42.84375 -18.019531 42.820312 -17.429688 42.78125 -17.140625 Z M 15.65625 -24.375 L 30.0625 -24.375 C 29.769531 -26.34375 28.992188 -27.859375 27.734375 -28.921875 C 26.484375 -29.984375 24.875 -30.515625 22.90625 -30.515625 C 20.738281 -30.515625 19.015625 -29.945312 17.734375 -28.8125 C 16.453125 -27.675781 15.757812 -26.195312 15.65625 -24.375 Z M 15.65625 -24.375 "/></g></g></g><g fill="#ffffff" fill-opacity="1"><g transform="translate(125.129071, 291.8008)"><g><path d="M 4.4375 0 L 4.4375 -37.890625 L 17.515625 -37.890625 L 17.515625 -32.4375 L 17.65625 -32.4375 C 17.75 -32.632812 17.90625 -32.878906 18.125 -33.171875 C 18.351562 -33.460938 18.835938 -33.976562 19.578125 -34.71875 C 20.316406 -35.457031 21.101562 -36.125 21.9375 -36.71875 C 22.78125 -37.3125 23.863281 -37.835938 25.1875 -38.296875 C 26.519531 -38.765625 27.875 -39 29.25 -39 C 30.675781 -39 32.078125 -38.800781 33.453125 -38.40625 C 34.835938 -38.019531 35.851562 -37.628906 36.5 -37.234375 L 37.53125 -36.640625 L 32.0625 -25.5625 C 30.4375 -26.9375 28.171875 -27.625 25.265625 -27.625 C 23.691406 -27.625 22.335938 -27.28125 21.203125 -26.59375 C 20.066406 -25.90625 19.265625 -25.066406 18.796875 -24.078125 C 18.328125 -23.097656 17.992188 -22.257812 17.796875 -21.5625 C 17.609375 -20.875 17.515625 -20.335938 17.515625 -19.953125 L 17.515625 0 Z M 4.4375 0 "/></g></g></g><g fill="#ffffff" fill-opacity="1"><g transform="translate(161.911649, 291.8008)"><g><path d="M 14.03125 -37.890625 L 23.265625 -17.28125 L 32.5 -37.890625 L 48.015625 -37.890625 L 27.703125 0 L 18.84375 0 L -1.484375 -37.890625 Z M 14.03125 -37.890625 "/></g></g></g><g fill="#ffffff" fill-opacity="1"><g transform="translate(208.443829, 291.8008)"><g><path d="M 5.6875 -59.015625 C 7.21875 -60.546875 9.039062 -61.3125 11.15625 -61.3125 C 13.269531 -61.3125 15.085938 -60.546875 16.609375 -59.015625 C 18.140625 -57.492188 18.90625 -55.671875 18.90625 -53.546875 C 18.90625 -51.429688 18.140625 -49.609375 16.609375 -48.078125 C 15.085938 -46.554688 13.269531 -45.796875 11.15625 -45.796875 C 9.039062 -45.796875 7.21875 -46.554688 5.6875 -48.078125 C 4.15625 -49.609375 3.390625 -51.429688 3.390625 -53.546875 C 3.390625 -55.671875 4.15625 -57.492188 5.6875 -59.015625 Z M 4.4375 -37.890625 L 4.4375 0 L 17.515625 0 L 17.515625 -37.890625 Z M 4.4375 -37.890625 "/></g></g></g><g fill="#ffffff" fill-opacity="1"><g transform="translate(230.749726, 291.8008)"><g><path d="M 24.59375 -28.296875 C 22.132812 -28.296875 20.019531 -27.382812 18.25 -25.5625 C 16.476562 -23.738281 15.59375 -21.546875 15.59375 -18.984375 C 15.59375 -16.378906 16.476562 -14.164062 18.25 -12.34375 C 20.019531 -10.519531 22.132812 -9.609375 24.59375 -9.609375 C 25.78125 -9.609375 26.898438 -9.753906 27.953125 -10.046875 C 29.015625 -10.335938 29.789062 -10.632812 30.28125 -10.9375 L 30.953125 -11.375 L 35.390625 -2.296875 C 35.046875 -2.046875 34.5625 -1.734375 33.9375 -1.359375 C 33.320312 -0.992188 31.921875 -0.492188 29.734375 0.140625 C 27.546875 0.785156 25.191406 1.109375 22.671875 1.109375 C 17.109375 1.109375 12.222656 -0.847656 8.015625 -4.765625 C 3.804688 -8.679688 1.703125 -13.375 1.703125 -18.84375 C 1.703125 -24.351562 3.804688 -29.085938 8.015625 -33.046875 C 12.222656 -37.015625 17.109375 -39 22.671875 -39 C 25.191406 -39 27.507812 -38.703125 29.625 -38.109375 C 31.738281 -37.523438 33.238281 -36.9375 34.125 -36.34375 L 35.390625 -35.453125 L 30.953125 -26.515625 C 29.328125 -27.703125 27.207031 -28.296875 24.59375 -28.296875 Z M 24.59375 -28.296875 "/></g></g></g><g fill="#ffffff" fill-opacity="1"><g transform="translate(267.015286, 291.8008)"><g><path d="M 5.6875 -59.015625 C 7.21875 -60.546875 9.039062 -61.3125 11.15625 -61.3125 C 13.269531 -61.3125 15.085938 -60.546875 16.609375 -59.015625 C 18.140625 -57.492188 18.90625 -55.671875 18.90625 -53.546875 C 18.90625 -51.429688 18.140625 -49.609375 16.609375 -48.078125 C 15.085938 -46.554688 13.269531 -45.796875 11.15625 -45.796875 C 9.039062 -45.796875 7.21875 -46.554688 5.6875 -48.078125 C 4.15625 -49.609375 3.390625 -51.429688 3.390625 -53.546875 C 3.390625 -55.671875 4.15625 -57.492188 5.6875 -59.015625 Z M 4.4375 -37.890625 L 4.4375 0 L 17.515625 0 L 17.515625 -37.890625 Z M 4.4375 -37.890625 "/></g></g></g><g fill="#ffffff" fill-opacity="1"><g transform="translate(289.321183, 291.8008)"><g><path d="M 8.015625 -4.5 C 3.804688 -8.25 1.703125 -13.050781 1.703125 -18.90625 C 1.703125 -24.769531 3.890625 -29.582031 8.265625 -33.34375 C 12.648438 -37.113281 18.070312 -39 24.53125 -39 C 30.882812 -39 36.238281 -37.101562 40.59375 -33.3125 C 44.945312 -29.519531 47.125 -24.71875 47.125 -18.90625 C 47.125 -13.09375 44.992188 -8.300781 40.734375 -4.53125 C 36.484375 -0.769531 31.082031 1.109375 24.53125 1.109375 C 17.726562 1.109375 12.222656 -0.757812 8.015625 -4.5 Z M 18.140625 -25.328125 C 16.441406 -23.660156 15.59375 -21.519531 15.59375 -18.90625 C 15.59375 -16.300781 16.40625 -14.171875 18.03125 -12.515625 C 19.65625 -10.867188 21.796875 -10.046875 24.453125 -10.046875 C 27.015625 -10.046875 29.117188 -10.882812 30.765625 -12.5625 C 32.421875 -14.238281 33.25 -16.351562 33.25 -18.90625 C 33.25 -21.519531 32.394531 -23.660156 30.6875 -25.328125 C 28.988281 -27.003906 26.910156 -27.84375 24.453125 -27.84375 C 21.941406 -27.84375 19.835938 -27.003906 18.140625 -25.328125 Z M 18.140625 -25.328125 "/></g></g></g><g fill="#ffffff" fill-opacity="1"><g transform="translate(338.143037, 291.8008)"><g/></g></g><g fill="#ffffff" fill-opacity="1"><g transform="translate(358.306991, 291.8008)"><g><path d="M 35.390625 -60.953125 L 59.984375 0 L 45.0625 0 L 40.5625 -12.1875 L 17.359375 -12.1875 L 12.859375 0 L -2.0625 0 L 22.53125 -60.953125 Z M 35.828125 -24.375 L 29.03125 -42.109375 L 28.890625 -42.109375 L 22.09375 -24.375 Z M 35.828125 -24.375 "/></g></g></g><g fill="#ffffff" fill-opacity="1"><g transform="translate(416.213715, 291.8008)"><g><path d="M 16.765625 -37.890625 L 16.765625 -19.875 C 16.765625 -16.132812 17.332031 -13.472656 18.46875 -11.890625 C 19.601562 -10.316406 21.523438 -9.53125 24.234375 -9.53125 C 26.941406 -9.53125 28.859375 -10.316406 29.984375 -11.890625 C 31.117188 -13.472656 31.6875 -16.132812 31.6875 -19.875 L 31.6875 -37.890625 L 44.765625 -37.890625 L 44.765625 -16.703125 C 44.765625 -10.390625 43.125 -5.84375 39.84375 -3.0625 C 36.570312 -0.28125 31.363281 1.109375 24.21875 1.109375 C 17.082031 1.109375 11.875 -0.28125 8.59375 -3.0625 C 5.320312 -5.84375 3.6875 -10.390625 3.6875 -16.703125 L 3.6875 -37.890625 Z M 16.765625 -37.890625 "/></g></g></g><g fill="#ffffff" fill-opacity="1"><g transform="translate(464.66625, 291.8008)"><g><path d="M 6.65625 -37.890625 L 6.65625 -52.015625 L 19.71875 -52.015625 L 19.71875 -37.890625 L 27.703125 -37.890625 L 27.703125 -27.921875 L 19.71875 -27.921875 L 19.71875 -15.890625 C 19.71875 -12.390625 20.703125 -10.640625 22.671875 -10.640625 C 23.171875 -10.640625 23.691406 -10.738281 24.234375 -10.9375 C 24.773438 -11.132812 25.191406 -11.332031 25.484375 -11.53125 L 25.9375 -11.8125 L 29.1875 -1.25 C 26.375 0.320312 23.171875 1.109375 19.578125 1.109375 C 17.117188 1.109375 15 0.675781 13.21875 -0.1875 C 11.445312 -1.050781 10.101562 -2.207031 9.1875 -3.65625 C 8.28125 -5.113281 7.628906 -6.640625 7.234375 -8.234375 C 6.847656 -9.835938 6.65625 -11.550781 6.65625 -13.375 L 6.65625 -27.921875 L 1.1875 -27.921875 L 1.1875 -37.890625 Z M 6.65625 -37.890625 "/></g></g></g><g fill="#ffffff" fill-opacity="1"><g transform="translate(493.841185, 291.8008)"><g><path d="M 8.015625 -4.5 C 3.804688 -8.25 1.703125 -13.050781 1.703125 -18.90625 C 1.703125 -24.769531 3.890625 -29.582031 8.265625 -33.34375 C 12.648438 -37.113281 18.070312 -39 24.53125 -39 C 30.882812 -39 36.238281 -37.101562 40.59375 -33.3125 C 44.945312 -29.519531 47.125 -24.71875 47.125 -18.90625 C 47.125 -13.09375 44.992188 -8.300781 40.734375 -4.53125 C 36.484375 -0.769531 31.082031 1.109375 24.53125 1.109375 C 17.726562 1.109375 12.222656 -0.757812 8.015625 -4.5 Z M 18.140625 -25.328125 C 16.441406 -23.660156 15.59375 -21.519531 15.59375 -18.90625 C 15.59375 -16.300781 16.40625 -14.171875 18.03125 -12.515625 C 19.65625 -10.867188 21.796875 -10.046875 24.453125 -10.046875 C 27.015625 -10.046875 29.117188 -10.882812 30.765625 -12.5625 C 32.421875 -14.238281 33.25 -16.351562 33.25 -18.90625 C 33.25 -21.519531 32.394531 -23.660156 30.6875 -25.328125 C 28.988281 -27.003906 26.910156 -27.84375 24.453125 -27.84375 C 21.941406 -27.84375 19.835938 -27.003906 18.140625 -25.328125 Z M 18.140625 -25.328125 "/></g></g></g><g fill="#ffffff" fill-opacity="1"><g transform="translate(542.663039, 291.8008)"><g><path d="M 4.4375 0 L 4.4375 -37.890625 L 17.515625 -37.890625 L 17.515625 -33.90625 L 17.65625 -33.90625 C 21.050781 -37.300781 24.671875 -39 28.515625 -39 C 31.273438 -39 33.859375 -38.429688 36.265625 -37.296875 C 38.679688 -36.171875 40.503906 -34.425781 41.734375 -32.0625 C 45.578125 -36.6875 49.765625 -39 54.296875 -39 C 58.335938 -39 61.8125 -37.863281 64.71875 -35.59375 C 67.625 -33.332031 69.078125 -29.789062 69.078125 -24.96875 L 69.078125 0 L 56 0 L 56 -21.421875 C 56 -23.441406 55.441406 -25.128906 54.328125 -26.484375 C 53.222656 -27.835938 51.5625 -28.515625 49.34375 -28.515625 C 47.425781 -28.515625 45.960938 -27.9375 44.953125 -26.78125 C 43.941406 -25.625 43.390625 -24.234375 43.296875 -22.609375 L 43.296875 0 L 30.21875 0 L 30.21875 -21.421875 C 30.21875 -23.441406 29.660156 -25.128906 28.546875 -26.484375 C 27.441406 -27.835938 25.78125 -28.515625 23.5625 -28.515625 C 21.539062 -28.515625 20.023438 -27.882812 19.015625 -26.625 C 18.015625 -25.375 17.515625 -23.882812 17.515625 -22.15625 L 17.515625 0 Z M 4.4375 0 "/></g></g></g><g fill="#ffffff" fill-opacity="1"><g transform="translate(615.415731, 291.8008)"><g><path d="M 8.015625 -4.5 C 3.804688 -8.25 1.703125 -13.050781 1.703125 -18.90625 C 1.703125 -24.769531 3.890625 -29.582031 8.265625 -33.34375 C 12.648438 -37.113281 18.070312 -39 24.53125 -39 C 30.882812 -39 36.238281 -37.101562 40.59375 -33.3125 C 44.945312 -29.519531 47.125 -24.71875 47.125 -18.90625 C 47.125 -13.09375 44.992188 -8.300781 40.734375 -4.53125 C 36.484375 -0.769531 31.082031 1.109375 24.53125 1.109375 C 17.726562 1.109375 12.222656 -0.757812 8.015625 -4.5 Z M 18.140625 -25.328125 C 16.441406 -23.660156 15.59375 -21.519531 15.59375 -18.90625 C 15.59375 -16.300781 16.40625 -14.171875 18.03125 -12.515625 C 19.65625 -10.867188 21.796875 -10.046875 24.453125 -10.046875 C 27.015625 -10.046875 29.117188 -10.882812 30.765625 -12.5625 C 32.421875 -14.238281 33.25 -16.351562 33.25 -18.90625 C 33.25 -21.519531 32.394531 -23.660156 30.6875 -25.328125 C 28.988281 -27.003906 26.910156 -27.84375 24.453125 -27.84375 C 21.941406 -27.84375 19.835938 -27.003906 18.140625 -25.328125 Z M 18.140625 -25.328125 "/></g></g></g><g fill="#ffffff" fill-opacity="1"><g transform="translate(664.237585, 291.8008)"><g><path d="M 6.65625 -37.890625 L 6.65625 -52.015625 L 19.71875 -52.015625 L 19.71875 -37.890625 L 27.703125 -37.890625 L 27.703125 -27.921875 L 19.71875 -27.921875 L 19.71875 -15.890625 C 19.71875 -12.390625 20.703125 -10.640625 22.671875 -10.640625 C 23.171875 -10.640625 23.691406 -10.738281 24.234375 -10.9375 C 24.773438 -11.132812 25.191406 -11.332031 25.484375 -11.53125 L 25.9375 -11.8125 L 29.1875 -1.25 C 26.375 0.320312 23.171875 1.109375 19.578125 1.109375 C 17.117188 1.109375 15 0.675781 13.21875 -0.1875 C 11.445312 -1.050781 10.101562 -2.207031 9.1875 -3.65625 C 8.28125 -5.113281 7.628906 -6.640625 7.234375 -8.234375 C 6.847656 -9.835938 6.65625 -11.550781 6.65625 -13.375 L 6.65625 -27.921875 L 1.1875 -27.921875 L 1.1875 -37.890625 Z M 6.65625 -37.890625 "/></g></g></g><g fill="#ffffff" fill-opacity="1"><g transform="translate(693.412487, 291.8008)"><g><path d="M 8.015625 -4.5 C 3.804688 -8.25 1.703125 -13.050781 1.703125 -18.90625 C 1.703125 -24.769531 3.890625 -29.582031 8.265625 -33.34375 C 12.648438 -37.113281 18.070312 -39 24.53125 -39 C 30.882812 -39 36.238281 -37.101562 40.59375 -33.3125 C 44.945312 -29.519531 47.125 -24.71875 47.125 -18.90625 C 47.125 -13.09375 44.992188 -8.300781 40.734375 -4.53125 C 36.484375 -0.769531 31.082031 1.109375 24.53125 1.109375 C 17.726562 1.109375 12.222656 -0.757812 8.015625 -4.5 Z M 18.140625 -25.328125 C 16.441406 -23.660156 15.59375 -21.519531 15.59375 -18.90625 C 15.59375 -16.300781 16.40625 -14.171875 18.03125 -12.515625 C 19.65625 -10.867188 21.796875 -10.046875 24.453125 -10.046875 C 27.015625 -10.046875 29.117188 -10.882812 30.765625 -12.5625 C 32.421875 -14.238281 33.25 -16.351562 33.25 -18.90625 C 33.25 -21.519531 32.394531 -23.660156 30.6875 -25.328125 C 28.988281 -27.003906 26.910156 -27.84375 24.453125 -27.84375 C 21.941406 -27.84375 19.835938 -27.003906 18.140625 -25.328125 Z M 18.140625 -25.328125 "/></g></g></g><g fill="#ffffff" fill-opacity="1"><g transform="translate(742.234341, 291.8008)"><g><path d="M 4.4375 0 L 4.4375 -37.890625 L 17.515625 -37.890625 L 17.515625 -32.4375 L 17.65625 -32.4375 C 17.75 -32.632812 17.90625 -32.878906 18.125 -33.171875 C 18.351562 -33.460938 18.835938 -33.976562 19.578125 -34.71875 C 20.316406 -35.457031 21.101562 -36.125 21.9375 -36.71875 C 22.78125 -37.3125 23.863281 -37.835938 25.1875 -38.296875 C 26.519531 -38.765625 27.875 -39 29.25 -39 C 30.675781 -39 32.078125 -38.800781 33.453125 -38.40625 C 34.835938 -38.019531 35.851562 -37.628906 36.5 -37.234375 L 37.53125 -36.640625 L 32.0625 -25.5625 C 30.4375 -26.9375 28.171875 -27.625 25.265625 -27.625 C 23.691406 -27.625 22.335938 -27.28125 21.203125 -26.59375 C 20.066406 -25.90625 19.265625 -25.066406 18.796875 -24.078125 C 18.328125 -23.097656 17.992188 -22.257812 17.796875 -21.5625 C 17.609375 -20.875 17.515625 -20.335938 17.515625 -19.953125 L 17.515625 0 Z M 4.4375 0 "/></g></g></g><g fill="#ffffff" fill-opacity="1"><g transform="translate(250.835769, 394.448463)"><g><path d="M 59.546875 -34.125 L 59.546875 -20.90625 C 57.960938 -13.664062 54.507812 -8.1875 49.1875 -4.46875 C 43.875 -0.75 37.941406 1.109375 31.390625 1.109375 C 23.171875 1.109375 16.164062 -1.96875 10.375 -8.125 C 4.59375 -14.28125 1.703125 -21.71875 1.703125 -30.4375 C 1.703125 -39.300781 4.53125 -46.785156 10.1875 -52.890625 C 15.851562 -59.003906 22.921875 -62.0625 31.390625 -62.0625 C 41.296875 -62.0625 49.128906 -58.585938 54.890625 -51.640625 L 45.796875 -41.671875 C 42.546875 -46.890625 38.015625 -49.5 32.203125 -49.5 C 27.921875 -49.5 24.265625 -47.640625 21.234375 -43.921875 C 18.210938 -40.203125 16.703125 -35.707031 16.703125 -30.4375 C 16.703125 -25.257812 18.210938 -20.835938 21.234375 -17.171875 C 24.265625 -13.503906 27.921875 -11.671875 32.203125 -11.671875 C 35.753906 -11.671875 38.847656 -12.738281 41.484375 -14.875 C 44.117188 -17.019531 45.4375 -19.867188 45.4375 -23.421875 L 31.390625 -23.421875 L 31.390625 -34.125 Z M 59.546875 -34.125 "/></g></g></g><g fill="#ffffff" fill-opacity="1"><g transform="translate(312.066203, 394.448463)"><g><path d="M 42.78125 -17.140625 L 15.296875 -17.140625 C 15.296875 -14.484375 16.15625 -12.515625 17.875 -11.234375 C 19.601562 -9.953125 21.476562 -9.3125 23.5 -9.3125 C 25.613281 -9.3125 27.285156 -9.59375 28.515625 -10.15625 C 29.742188 -10.71875 31.148438 -11.835938 32.734375 -13.515625 L 42.1875 -8.796875 C 38.238281 -2.191406 31.6875 1.109375 22.53125 1.109375 C 16.820312 1.109375 11.921875 -0.847656 7.828125 -4.765625 C 3.742188 -8.679688 1.703125 -13.394531 1.703125 -18.90625 C 1.703125 -24.425781 3.742188 -29.15625 7.828125 -33.09375 C 11.921875 -37.03125 16.820312 -39 22.53125 -39 C 28.539062 -39 33.425781 -37.265625 37.1875 -33.796875 C 40.957031 -30.328125 42.84375 -25.363281 42.84375 -18.90625 C 42.84375 -18.019531 42.820312 -17.429688 42.78125 -17.140625 Z M 15.65625 -24.375 L 30.0625 -24.375 C 29.769531 -26.34375 28.992188 -27.859375 27.734375 -28.921875 C 26.484375 -29.984375 24.875 -30.515625 22.90625 -30.515625 C 20.738281 -30.515625 19.015625 -29.945312 17.734375 -28.8125 C 16.453125 -27.675781 15.757812 -26.195312 15.65625 -24.375 Z M 15.65625 -24.375 "/></g></g></g><g fill="#ffffff" fill-opacity="1"><g transform="translate(356.604138, 394.448463)"><g><path d="M 4.4375 0 L 4.4375 -37.890625 L 17.515625 -37.890625 L 17.515625 -33.90625 L 17.65625 -33.90625 C 21.050781 -37.300781 24.671875 -39 28.515625 -39 C 30.390625 -39 32.25 -38.753906 34.09375 -38.265625 C 35.9375 -37.773438 37.707031 -37.007812 39.40625 -35.96875 C 41.113281 -34.9375 42.492188 -33.472656 43.546875 -31.578125 C 44.609375 -29.679688 45.140625 -27.476562 45.140625 -24.96875 L 45.140625 0 L 32.0625 0 L 32.0625 -21.421875 C 32.0625 -23.390625 31.429688 -25.113281 30.171875 -26.59375 C 28.921875 -28.070312 27.285156 -28.8125 25.265625 -28.8125 C 23.296875 -28.8125 21.507812 -28.046875 19.90625 -26.515625 C 18.3125 -24.992188 17.515625 -23.296875 17.515625 -21.421875 L 17.515625 0 Z M 4.4375 0 "/></g></g></g><g fill="#ffffff" fill-opacity="1"><g transform="translate(405.425992, 394.448463)"><g><path d="M 42.78125 -17.140625 L 15.296875 -17.140625 C 15.296875 -14.484375 16.15625 -12.515625 17.875 -11.234375 C 19.601562 -9.953125 21.476562 -9.3125 23.5 -9.3125 C 25.613281 -9.3125 27.285156 -9.59375 28.515625 -10.15625 C 29.742188 -10.71875 31.148438 -11.835938 32.734375 -13.515625 L 42.1875 -8.796875 C 38.238281 -2.191406 31.6875 1.109375 22.53125 1.109375 C 16.820312 1.109375 11.921875 -0.847656 7.828125 -4.765625 C 3.742188 -8.679688 1.703125 -13.394531 1.703125 -18.90625 C 1.703125 -24.425781 3.742188 -29.15625 7.828125 -33.09375 C 11.921875 -37.03125 16.820312 -39 22.53125 -39 C 28.539062 -39 33.425781 -37.265625 37.1875 -33.796875 C 40.957031 -30.328125 42.84375 -25.363281 42.84375 -18.90625 C 42.84375 -18.019531 42.820312 -17.429688 42.78125 -17.140625 Z M 15.65625 -24.375 L 30.0625 -24.375 C 29.769531 -26.34375 28.992188 -27.859375 27.734375 -28.921875 C 26.484375 -29.984375 24.875 -30.515625 22.90625 -30.515625 C 20.738281 -30.515625 19.015625 -29.945312 17.734375 -28.8125 C 16.453125 -27.675781 15.757812 -26.195312 15.65625 -24.375 Z M 15.65625 -24.375 "/></g></g></g><g fill="#ffffff" fill-opacity="1"><g transform="translate(449.963927, 394.448463)"><g><path d="M 4.4375 0 L 4.4375 -37.890625 L 17.515625 -37.890625 L 17.515625 -32.4375 L 17.65625 -32.4375 C 17.75 -32.632812 17.90625 -32.878906 18.125 -33.171875 C 18.351562 -33.460938 18.835938 -33.976562 19.578125 -34.71875 C 20.316406 -35.457031 21.101562 -36.125 21.9375 -36.71875 C 22.78125 -37.3125 23.863281 -37.835938 25.1875 -38.296875 C 26.519531 -38.765625 27.875 -39 29.25 -39 C 30.675781 -39 32.078125 -38.800781 33.453125 -38.40625 C 34.835938 -38.019531 35.851562 -37.628906 36.5 -37.234375 L 37.53125 -36.640625 L 32.0625 -25.5625 C 30.4375 -26.9375 28.171875 -27.625 25.265625 -27.625 C 23.691406 -27.625 22.335938 -27.28125 21.203125 -26.59375 C 20.066406 -25.90625 19.265625 -25.066406 18.796875 -24.078125 C 18.328125 -23.097656 17.992188 -22.257812 17.796875 -21.5625 C 17.609375 -20.875 17.515625 -20.335938 17.515625 -19.953125 L 17.515625 0 Z M 4.4375 0 "/></g></g></g><g fill="#ffffff" fill-opacity="1"><g transform="translate(486.746504, 394.448463)"><g><path d="M 7.015625 -4.6875 C 3.472656 -8.550781 1.703125 -13.289062 1.703125 -18.90625 C 1.703125 -24.519531 3.472656 -29.269531 7.015625 -33.15625 C 10.566406 -37.050781 15.070312 -39 20.53125 -39 C 25.5625 -39 29.703125 -37.425781 32.953125 -34.28125 L 32.953125 -37.890625 L 46.03125 -37.890625 L 46.03125 0 L 33.09375 0 L 33.09375 -4.28125 L 32.953125 -4.28125 C 29.703125 -0.6875 25.5625 1.109375 20.53125 1.109375 C 15.070312 1.109375 10.566406 -0.820312 7.015625 -4.6875 Z M 18.140625 -25.328125 C 16.441406 -23.660156 15.59375 -21.519531 15.59375 -18.90625 C 15.59375 -16.300781 16.40625 -14.171875 18.03125 -12.515625 C 19.65625 -10.867188 21.796875 -10.046875 24.453125 -10.046875 C 27.015625 -10.046875 29.117188 -10.882812 30.765625 -12.5625 C 32.421875 -14.238281 33.25 -16.351562 33.25 -18.90625 C 33.25 -21.519531 32.394531 -23.660156 30.6875 -25.328125 C 28.988281 -27.003906 26.910156 -27.84375 24.453125 -27.84375 C 21.941406 -27.84375 19.835938 -27.003906 18.140625 -25.328125 Z M 18.140625 -25.328125 "/></g></g></g><g fill="#ffffff" fill-opacity="1"><g transform="translate(537.193301, 394.448463)"><g><path d="M 4.4375 0 L 4.4375 -63.53125 L 17.515625 -63.53125 L 17.515625 0 Z M 4.4375 0 "/></g></g></g></svg>